<svg width="13030" height="1258" viewBox="0 0 13030 1258" fill="none" xmlns="http://www.w3.org/2000/svg">
<path d="M926 840H1257V973H754V313H926V840ZM1527.56 313V973H1355.56V313H1527.56ZM2437.92 313V973H2285.92V670L2290.92 467H2288.92L2125.92 973H1986.92L1823.92 467H1821.92L1826.92 670V973H1673.92V313H1918.92L2022.92 649L2059.92 789H2061.92L2099.92 650L2202.92 313H2437.92ZM3184.08 973H3007.08L2961.08 824H2735.08L2688.08 973H2515.08L2747.08 313H2953.08L3184.08 973ZM2767.08 707H2929.08L2848.08 440L2767.08 707ZM3732.83 313V446H3517.83V973H3345.83V446H3129.83V313H3732.83ZM3831.15 973V313H4345.15V446H4003.15V580H4275.15V705H4003.15V840H4358.15V973H3831.15ZM5325.68 973H5148.68L5102.68 824H4876.68L4829.68 973H4656.68L4888.68 313H5094.68L5325.68 973ZM4908.68 707H5070.68L4989.68 440L4908.68 707ZM5717.44 313C5796.1 313 5857.1 331.667 5900.44 369C5944.44 405.667 5966.44 454.667 5966.44 516C5966.44 583.333 5944.77 634.667 5901.44 670C5858.1 705.333 5797.1 723 5718.44 723L5702.44 732H5571.44V973H5402.44V313H5717.44ZM5693.44 610C5726.77 610 5751.77 603.333 5768.44 590C5785.1 576.667 5793.44 555.333 5793.44 526C5793.44 497.333 5785.1 476.333 5768.44 463C5751.77 449.667 5726.77 443 5693.44 443H5571.44V610H5693.44ZM5794.44 646L6005.44 973H5815.44L5646.44 684L5794.44 646ZM6639.08 313V446H6424.08V973H6252.08V446H6036.08V313H6639.08ZM7543.38 313V446H7328.38V973H7156.38V446H6940.38V313H7543.38ZM8158.69 973H7981.69L7935.69 824H7709.69L7662.69 973H7489.69L7721.69 313H7927.69L8158.69 973ZM7741.69 707H7903.69L7822.69 440L7741.69 707ZM8490.52 303C8551.85 303 8605.85 312.667 8652.52 332C8699.85 350.667 8740.85 378.333 8775.52 415L8692.52 526C8663.85 496 8632.85 473.667 8599.52 459C8566.85 443.667 8529.52 436 8487.52 436C8462.85 436 8442.85 438.667 8427.52 444C8412.18 449.333 8401.18 456.667 8394.52 466C8387.85 475.333 8384.52 486 8384.52 498C8384.52 512 8390.85 524 8403.52 534C8416.85 543.333 8438.18 551.333 8467.52 558L8578.52 583C8644.52 598.333 8692.85 620.667 8723.52 650C8754.18 679.333 8769.52 718.333 8769.52 767C8769.52 813.667 8757.52 853.333 8733.52 886C8709.52 918 8676.52 942.333 8634.52 959C8592.52 975 8544.52 983 8490.52 983C8446.52 983 8404.52 978.333 8364.52 969C8324.52 959 8288.52 945 8256.52 927C8224.52 909 8197.52 888.333 8175.52 865L8258.52 750C8275.18 769.333 8295.52 786.667 8319.52 802C8344.18 816.667 8370.85 828.333 8399.52 837C8428.85 845.667 8458.52 850 8488.52 850C8511.85 850 8531.18 847.667 8546.52 843C8562.52 838.333 8574.18 831.333 8581.52 822C8588.85 812.667 8592.52 801.667 8592.52 789C8592.52 775 8587.52 763.333 8577.52 754C8567.52 744 8548.52 735.667 8520.52 729L8398.52 702C8361.18 693.333 8327.85 682 8298.52 668C8269.85 653.333 8247.18 634 8230.52 610C8213.85 585.333 8205.52 554.667 8205.52 518C8205.52 476.667 8216.85 440 8239.52 408C8262.18 375.333 8294.85 349.667 8337.52 331C8380.18 312.333 8431.18 303 8490.52 303ZM9476.05 313L9166.05 684L9155.05 658L8998.05 849L8965.05 710L9285.05 313H9476.05ZM9049.05 313V973H8877.05V313H9049.05ZM9222.05 531L9488.05 973H9293.05L9093.05 627L9222.05 531ZM10083.4 446H9742.41V586H10014.4V719H9742.41V973H9570.41V313H10083.4V446ZM10473.8 303C10540.5 303 10597.8 316.667 10645.8 344C10694.5 370.667 10731.8 409.333 10757.8 460C10783.8 510.667 10796.8 571.667 10796.8 643C10796.8 714.333 10783.8 775.333 10757.8 826C10731.8 876.667 10694.5 915.667 10645.8 943C10597.8 969.667 10540.5 983 10473.8 983C10407.2 983 10349.5 969.667 10300.8 943C10252.2 915.667 10214.8 876.667 10188.8 826C10162.8 775.333 10149.8 714.333 10149.8 643C10149.8 571.667 10162.8 510.667 10188.8 460C10214.8 409.333 10252.2 370.667 10300.8 344C10349.5 316.667 10407.2 303 10473.8 303ZM10473.8 438C10441.8 438 10414.8 445.667 10392.8 461C10370.8 476.333 10354.2 499.333 10342.8 530C10331.5 560 10325.8 597.667 10325.8 643C10325.8 687.667 10331.5 725.333 10342.8 756C10354.2 786.667 10370.8 809.667 10392.8 825C10414.8 840.333 10441.8 848 10473.8 848C10505.8 848 10532.5 840.333 10553.8 825C10575.8 809.667 10592.5 786.667 10603.8 756C10615.2 725.333 10620.8 687.667 10620.8 643C10620.8 597.667 10615.2 560 10603.8 530C10592.5 499.333 10575.8 476.333 10553.8 461C10532.5 445.667 10505.8 438 10473.8 438ZM11230.1 313C11308.8 313 11369.8 331.667 11413.1 369C11457.1 405.667 11479.1 454.667 11479.1 516C11479.1 583.333 11457.5 634.667 11414.1 670C11370.8 705.333 11309.8 723 11231.1 723L11215.1 732H11084.1V973H10915.1V313H11230.1ZM11206.1 610C11239.5 610 11264.5 603.333 11281.1 590C11297.8 576.667 11306.1 555.333 11306.1 526C11306.1 497.333 11297.8 476.333 11281.1 463C11264.5 449.667 11239.5 443 11206.1 443H11084.1V610H11206.1ZM11307.1 646L11518.1 973H11328.1L11159.1 684L11307.1 646ZM12182.8 784C12170.1 830 12149.8 868 12121.8 898C12093.8 927.333 12060.4 949 12021.8 963C11983.1 976.333 11940.4 983 11893.8 983C11827.1 983 11769.4 969.667 11720.8 943C11672.1 915.667 11634.8 876.667 11608.8 826C11582.8 775.333 11569.8 714.333 11569.8 643C11569.8 571.667 11582.8 510.667 11608.8 460C11634.8 409.333 11672.1 370.667 11720.8 344C11769.4 316.667 11826.8 303 11892.8 303C11938.8 303 11981.1 309.667 12019.8 323C12058.4 335.667 12091.1 355.333 12117.8 382C12144.4 408.667 12163.4 443 12174.8 485L12023.8 546C12014.4 504.667 11999.1 476.333 11977.8 461C11957.1 445.667 11930.8 438 11898.8 438C11867.4 438 11840.1 445.667 11816.8 461C11794.1 476.333 11776.4 499.333 11763.8 530C11751.8 560 11745.8 597.667 11745.8 643C11745.8 687.667 11751.4 725.333 11762.8 756C11774.1 786.667 11791.1 809.667 11813.8 825C11837.1 840.333 11865.8 848 11899.8 848C11931.8 848 11958.8 839.333 11980.8 822C12003.4 804 12018.8 776.667 12026.8 740L12182.8 784ZM12278.4 973V313H12792.4V446H12450.4V580H12722.4V705H12450.4V840H12805.4V973H12278.4Z" fill="black"/>
<mask id="mask0_27_45" style="mask-type:alpha" maskUnits="userSpaceOnUse" x="45" y="303" width="613" height="680">
<path d="M658 784C645.333 830 625 868 597 898C569 927.333 535.667 949 497 963C458.333 976.333 415.667 983 369 983C302.333 983 244.667 969.667 196 943C147.333 915.667 110 876.667 84 826C58 775.333 45 714.333 45 643C45 571.667 58 510.667 84 460C110 409.333 147.333 370.667 196 344C244.667 316.667 302 303 368 303C414 303 456.333 309.667 495 323C533.667 335.667 566.333 355.333 593 382C619.667 408.667 638.667 443 650 485L499 546C489.667 504.667 474.333 476.333 453 461C432.333 445.667 406 438 374 438C342.667 438 315.333 445.667 292 461C269.333 476.333 251.667 499.333 239 530C227 560 221 597.667 221 643C221 687.667 226.667 725.333 238 756C249.333 786.667 266.333 809.667 289 825C312.333 840.333 341 848 375 848C407 848 434 839.333 456 822C478.667 804 494 776.667 502 740L658 784Z" fill="black"/>
</mask>
<g mask="url(#mask0_27_45)">
<rect x="-263" y="301" width="748" height="619" fill="#FFEAC1"/>
<path d="M277 737H660V989H83.5L47 807.5L277 737Z" fill="#FF449F"/>
<path d="M277 737H660V989H83.5L47 807.5L277 737Z" fill="#FF449F"/>
<path d="M277 737H660V989H83.5L47 807.5L277 737Z" fill="#FF449F"/>
<path d="M277 737H660V989H83.5L47 807.5L277 737Z" fill="#FF449F"/>
<path d="M13.5 478.5L235 275.5H659V551H242.5L13.5 478.5Z" fill="#005F99"/>
</g>
</svg>
