<svg width="978" height="977" viewBox="0 0 978 977" fill="none" xmlns="http://www.w3.org/2000/svg">
<path d="M558.282 785.003C527.49 838.336 450.51 838.336 419.718 785.003L69.8437 179.003C39.0517 125.67 77.5417 59.003 139.126 59.003L838.874 59.0029C900.458 59.0029 938.948 125.67 908.156 179.003L558.282 785.003Z" fill="#FF7373" fill-opacity="0.7"/>
<path d="M419.718 192.002C450.51 138.669 527.49 138.669 558.282 192.002L908.156 798.002C938.948 851.336 900.458 918.002 838.874 918.002L139.126 918.002C77.5415 918.002 39.0515 851.336 69.8435 798.002L419.718 192.002Z" fill="#007BFF" fill-opacity="0.7"/>
<path d="M193 557.72C139.667 526.928 139.667 449.948 193 419.156L799 69.282C852.333 38.49 919 76.98 919 138.564L919 838.313C919 899.897 852.333 938.387 799 907.595L193 557.72Z" fill="#02E2C7" fill-opacity="0.7"/>
</svg>
