<?xml version="1.0" encoding="UTF-8" standalone="no"?>
<!-- Created with Inkscape (http://www.inkscape.org/) -->
<svg
   xmlns:svg="http://www.w3.org/2000/svg"
   xmlns="http://www.w3.org/2000/svg"
   version="1.0"
   width="1133.8583"
   height="426.61417"
   id="svg2">
  <defs
     id="defs4" />
  <g
     transform="translate(-222.36643,-187.90509)"
     id="layer1">
    <g
       transform="matrix(6.3303485,0,0,6.3303485,-1149.8574,-2863.1756)"
       id="g2684">
      <path
         d="M 291.69517,520.73143 L 291.69517,525.77643 C 291.69517,526.81143 291.41017,527.56018 290.84017,528.02268 C 290.27017,528.46893 289.64642,528.63018 288.34392,528.63018 C 287.15017,528.63018 286.52517,528.50393 285.95517,528.14768 C 285.26017,527.68393 284.92142,526.91768 284.92142,525.77643 L 284.92142,518.34268 C 284.92142,517.23768 285.24142,516.47018 285.91892,516.02518 C 286.49017,515.63268 287.11392,515.50768 288.34392,515.50768 C 289.64642,515.50768 290.27017,515.66768 290.84017,516.11393 C 291.41017,516.57768 291.69517,517.32643 291.69517,518.34268 L 291.69517,519.28768 L 289.07517,519.28768 L 289.07517,518.80643 C 289.07517,518.07518 288.82642,517.70018 288.30892,517.70018 C 287.79142,517.70018 287.54267,518.07518 287.54267,518.80643 L 287.54267,525.33143 C 287.54267,526.04393 287.79142,526.41893 288.30892,526.41893 C 288.82642,526.41893 289.07517,526.06268 289.07517,525.33143 L 289.07517,522.92393 L 288.32642,522.92393 L 288.32642,520.73143 L 291.69517,520.73143"
         id="path2433"
         style="fill:#000000;fill-opacity:1;fill-rule:nonzero;stroke:none" />
      <path
         d="M 293.17642,518.34268 C 293.17642,517.23768 293.49642,516.47018 294.17392,516.02518 C 294.74517,515.65018 295.36892,515.50768 296.58017,515.50768 C 297.90017,515.50768 298.52517,515.65018 299.09517,516.11393 C 299.66517,516.57768 299.95017,517.32643 299.95017,518.34268 L 299.95017,525.79518 C 299.95017,526.81143 299.66517,527.56018 299.09517,528.02268 C 298.52517,528.46893 297.90017,528.63018 296.59892,528.63018 C 295.40392,528.63018 294.78017,528.50393 294.21017,528.14768 C 293.51392,527.68393 293.17642,526.91768 293.17642,525.79518 L 293.17642,518.34268 z M 297.33017,518.80643 C 297.33017,518.07518 297.08017,517.70018 296.56392,517.70018 C 296.04642,517.70018 295.79642,518.07518 295.79642,518.80643 L 295.79642,525.33143 C 295.79642,526.06268 296.04642,526.43643 296.56392,526.43643 C 297.08017,526.43643 297.33017,526.06268 297.33017,525.33143 L 297.33017,518.80643"
         id="path2437"
         style="fill:#000000;fill-opacity:1;fill-rule:nonzero;stroke:none" />
      <path
         d="M 307.02892,517.89643 L 304.24767,517.89643 L 304.24767,520.73143 L 306.90392,520.73143 L 306.90392,522.92393 L 304.24767,522.92393 L 304.24767,526.24018 L 307.02892,526.24018 L 307.02892,528.43393 L 301.62642,528.43393 L 301.62642,515.70393 L 307.02892,515.70393 L 307.02892,517.89643"
         id="path2441"
         style="fill:#000000;fill-opacity:1;fill-rule:nonzero;stroke:none" />
      <path
         d="M 314.28517,515.70393 L 314.28517,517.89643 L 312.36017,517.89643 L 312.36017,528.43393 L 309.73892,528.43393 L 309.73892,517.89643 L 307.79517,517.89643 L 307.79517,515.70393 L 314.28517,515.70393"
         id="path2445"
         style="fill:#000000;fill-opacity:1;fill-rule:nonzero;stroke:none" />
      <path
         d="M 319.63267,515.70393 L 322.25392,515.70393 L 322.25392,528.43393 L 319.63267,528.43393 L 319.63267,522.92393 L 318.10017,522.92393 L 318.10017,528.43393 L 315.47892,528.43393 L 315.47892,515.70393 L 318.10017,515.70393 L 318.10017,520.73143 L 319.63267,520.73143 L 319.63267,515.70393"
         id="path2449"
         style="fill:#000000;fill-opacity:1;fill-rule:nonzero;stroke:none" />
      <path
         d="M 329.51017,517.89643 L 326.72892,517.89643 L 326.72892,520.73143 L 329.38517,520.73143 L 329.38517,522.92393 L 326.72892,522.92393 L 326.72892,526.24018 L 329.51017,526.24018 L 329.51017,528.43393 L 324.10767,528.43393 L 324.10767,515.70393 L 329.51017,515.70393 L 329.51017,517.89643"
         id="path2453"
         style="fill:#000000;fill-opacity:1;fill-rule:nonzero;stroke:none" />
      <path
         d="M 330.68642,522.10393 L 334.07392,522.10393 L 334.07392,524.20768 L 330.68642,524.20768 L 330.68642,522.10393 z"
         id="path2455"
         style="fill:#000000;fill-opacity:1;fill-rule:nonzero;stroke:none" />
      <path
         d="M 335.66017,515.70393 L 338.28142,515.70393 L 338.28142,528.43393 L 335.66017,528.43393 L 335.66017,515.70393 z"
         id="path2457"
         style="fill:#000000;fill-opacity:1;fill-rule:nonzero;stroke:none" />
      <path
         d="M 348.10517,528.43393 L 345.00267,528.43393 L 342.91642,521.42643 C 342.89892,521.39143 342.81017,521.05268 342.73767,520.71393 C 342.70267,520.53518 342.57767,519.98268 342.38142,519.07268 C 342.54142,520.83893 342.54142,520.89143 342.54142,521.28393 L 342.54142,528.43393 L 340.17142,528.43393 L 340.17142,515.70393 L 343.29142,515.70393 L 345.27017,521.99768 C 345.39517,522.42518 345.50142,522.78143 345.55517,523.08518 C 345.62642,523.37018 345.69767,523.65518 345.75142,523.94018 C 345.80517,524.15518 345.91142,524.61768 346.03642,525.13518 C 345.80517,523.69143 345.73392,523.12018 345.73392,522.49643 L 345.73392,515.70393 L 348.10517,515.70393 L 348.10517,528.43393"
         id="path2461"
         style="fill:#000000;fill-opacity:1;fill-rule:nonzero;stroke:none" />
      <path
         d="M 353.72017,519.43018 C 353.70267,518.50268 353.66642,518.25268 353.50642,518.02143 C 353.36392,517.80768 353.15017,517.70018 352.90017,517.70018 C 352.45517,517.70018 352.18767,518.05768 352.18767,518.68143 C 352.18767,519.53768 352.47267,519.96518 353.81017,521.01643 C 355.78892,522.62143 356.30517,523.51268 356.30517,525.33143 C 356.30517,526.54393 356.07392,527.29268 355.55642,527.86268 C 355.02142,528.43393 354.39767,528.63018 353.11517,528.63018 C 350.29767,528.63018 349.49517,527.89893 349.49517,525.33143 C 349.49517,525.20643 349.49517,524.86768 349.51267,524.54643 L 352.11642,524.54643 L 352.11642,525.02768 C 352.11642,525.63518 352.13392,525.84768 352.24017,526.06268 C 352.34767,526.29393 352.59767,526.43643 352.86517,526.43643 C 353.38267,526.43643 353.63142,526.08018 353.63142,525.34893 C 353.63142,524.47518 353.38267,524.04768 352.49017,523.33518 C 351.04642,522.17518 350.65392,521.83643 350.26142,521.28393 C 349.76267,520.64268 349.51267,519.78643 349.51267,518.78768 C 349.51267,517.71893 349.79767,516.82643 350.29767,516.29268 C 350.77892,515.75768 351.58142,515.50768 352.82892,515.50768 C 355.30767,515.50768 356.21642,516.34518 356.21642,518.61018 C 356.21642,518.82393 356.21642,519.09143 356.19892,519.43018 L 353.72017,519.43018"
         id="path2465"
         style="fill:#000000;fill-opacity:1;fill-rule:nonzero;stroke:none" />
      <path
         d="M 363.42017,515.70393 L 363.42017,517.89643 L 361.49517,517.89643 L 361.49517,528.43393 L 358.87392,528.43393 L 358.87392,517.89643 L 356.93017,517.89643 L 356.93017,515.70393 L 363.42017,515.70393"
         id="path2469"
         style="fill:#000000;fill-opacity:1;fill-rule:nonzero;stroke:none" />
      <path
         d="M 364.61517,515.70393 L 367.23517,515.70393 L 367.23517,528.43393 L 364.61517,528.43393 L 364.61517,515.70393 z"
         id="path2471"
         style="fill:#000000;fill-opacity:1;fill-rule:nonzero;stroke:none" />
      <path
         d="M 374.90142,515.70393 L 374.90142,517.89643 L 372.97642,517.89643 L 372.97642,528.43393 L 370.35517,528.43393 L 370.35517,517.89643 L 368.41142,517.89643 L 368.41142,515.70393 L 374.90142,515.70393"
         id="path2475"
         style="fill:#000000;fill-opacity:1;fill-rule:nonzero;stroke:none" />
      <path
         d="M 382.74642,525.31393 C 382.74642,527.68393 381.78267,528.63018 379.34017,528.63018 C 378.41392,528.63018 377.73642,528.48643 377.18392,528.16643 C 376.29267,527.66643 375.97142,526.90018 375.97142,525.31393 L 375.97142,515.70393 L 378.59142,515.70393 L 378.59142,525.31393 C 378.59142,526.06268 378.84142,526.43643 379.35892,526.43643 C 379.85767,526.43643 380.12517,526.06268 380.12517,525.31393 L 380.12517,515.70393 L 382.74642,515.70393 L 382.74642,525.31393"
         id="path2479"
         style="fill:#000000;fill-opacity:1;fill-rule:nonzero;stroke:none" />
      <path
         d="M 390.28642,515.70393 L 390.28642,517.89643 L 388.36142,517.89643 L 388.36142,528.43393 L 385.74142,528.43393 L 385.74142,517.89643 L 383.79767,517.89643 L 383.79767,515.70393 L 390.28642,515.70393"
         id="path2483"
         style="fill:#000000;fill-opacity:1;fill-rule:nonzero;stroke:none" />
      <path
         d="M 260.36517,497.81518 C 260.36517,502.21518 263.93267,505.78268 268.33267,505.78268 C 272.73142,505.78268 276.29892,502.21518 276.29892,497.81518 C 276.29892,493.41518 272.73142,489.84768 268.33267,489.84768 C 263.93267,489.84768 260.36517,493.41518 260.36517,497.81518 z M 258.08017,497.81393 C 258.08017,492.15268 262.67017,487.56393 268.33267,487.56393 C 273.99517,487.56393 278.58392,492.15268 278.58392,497.81393 C 278.58392,503.47643 273.99517,508.06643 268.33267,508.06643 C 262.67017,508.06643 258.08017,503.47643 258.08017,497.81393"
         id="path2487"
         style="fill:#73be42;fill-opacity:1;fill-rule:nonzero;stroke:none" />
      <path
         d="M 260.55517,515.67393 L 258.33267,515.67393 C 258.33267,520.00643 254.80517,523.51768 250.47392,523.51768 C 246.14017,523.51768 242.62892,520.00643 242.62892,515.67393 C 242.62892,511.34143 246.14017,507.82893 250.47392,507.82893 L 250.47517,505.58893 C 244.89892,505.58893 240.38017,510.09893 240.38017,515.67268 C 240.38017,521.24768 244.89892,525.76643 250.47392,525.76643 C 256.04892,525.76643 260.55517,521.24893 260.55517,515.67393"
         id="path2491"
         style="fill:#73be42;fill-opacity:1;fill-rule:nonzero;stroke:none" />
      <path
         d="M 262.82142,515.67393 L 265.05392,515.67268 C 265.05392,523.71643 258.51767,530.23768 250.47392,530.23768 C 242.43142,530.23768 235.91142,523.71643 235.91142,515.67268 C 235.91142,507.63018 242.43142,501.11018 250.47392,501.11018 L 250.47517,503.34893 C 243.66642,503.34893 238.14767,508.86518 238.14767,515.67268 C 238.14767,522.48143 243.66642,528.00018 250.47392,528.00018 C 257.28142,528.00018 262.82142,522.48268 262.82142,515.67393"
         id="path2495"
         style="fill:#73be42;fill-opacity:1;fill-rule:nonzero;stroke:none" />
      <path
         d="M 269.53517,515.67393 L 267.28892,515.67393 C 267.28892,524.95268 259.75267,532.47393 250.47392,532.47393 C 241.19392,532.47393 233.67392,524.95268 233.67392,515.67393 C 233.67392,506.39518 241.19392,498.87393 250.47392,498.87393 L 250.47517,496.61143 C 239.93517,496.61143 231.39017,505.13393 231.39017,515.67268 C 231.39017,526.21268 239.93517,534.75768 250.47392,534.75768 C 261.01392,534.75768 269.53517,526.21393 269.53517,515.67393"
         id="path2499"
         style="fill:#73be42;fill-opacity:1;fill-rule:nonzero;stroke:none" />
      <path
         d="M 274.06892,515.67393 L 271.82392,515.67268 C 271.82392,527.45518 262.25767,537.00643 250.47517,537.00643 C 238.69267,537.00643 229.14142,527.45518 229.14142,515.67268 C 229.14142,503.89018 238.69267,494.33893 250.47517,494.33893 L 250.47517,492.06268 C 237.43642,492.06268 226.86517,502.63268 226.86517,515.67268 C 226.86517,528.71268 237.43642,539.28268 250.47517,539.28268 C 263.51392,539.28268 274.06892,528.71393 274.06892,515.67393"
         id="path2503"
         style="fill:#73be42;fill-opacity:1;fill-rule:nonzero;stroke:none" />
      <path
         d="M 278.58392,515.67393 L 276.36017,515.67268 C 276.36017,529.96018 264.76267,541.54143 250.47517,541.54143 C 236.18767,541.54143 224.60517,529.96018 224.60517,515.67268 C 224.60517,501.38518 236.18767,489.80393 250.47517,489.80393 L 250.47517,487.56393 C 234.95017,487.56393 222.36642,500.14893 222.36642,515.67268 C 222.36642,531.19643 234.95142,543.78143 250.47517,543.78143 C 266.00017,543.78143 278.58392,531.19893 278.58392,515.67393"
         id="path2507"
         style="fill:#73be42;fill-opacity:1;fill-rule:nonzero;stroke:none" />
    </g>
  </g>
</svg>
