<svg width="4120" height="1693" viewBox="0 0 4120 1693" fill="none" xmlns="http://www.w3.org/2000/svg">
<circle cx="852.167" cy="846.167" r="846.167" fill="url(#paint0_radial_57_328)"/>
<path d="M899.5 1026L1090.5 696H1194.5L1231.5 1026H1150L1143.5 948.5H1031L989 1026H899.5ZM1062 890H1140.5L1130.5 762L1062 890ZM1269.45 1026L1345.95 696H1487.45C1521.45 696 1548.28 704.333 1567.95 721C1587.95 737.333 1597.95 760.333 1597.95 790C1597.95 814 1592.28 834.333 1580.95 851C1569.95 867.667 1554.95 880.667 1535.95 890C1516.95 899 1495.45 904 1471.45 905L1452.45 909.5H1373.45L1387.45 848.5H1452.95C1465.95 848.5 1476.78 846.333 1485.45 842C1494.45 837.667 1501.28 831.667 1505.95 824C1510.62 816 1512.95 807.333 1512.95 798C1512.95 785 1508.62 775.667 1499.95 770C1491.28 764 1480.12 761 1466.45 761H1415.45L1353.95 1026H1269.45ZM1482.95 1026L1428.95 883L1506.95 871L1569.95 1026H1482.95ZM1946.17 696L1930.67 762.5H1824.17L1763.17 1026H1677.17L1738.17 762.5H1630.67L1646.17 696H1946.17Z" fill="white"/>
<path d="M784 566C755.667 566 730.333 560.333 708 549C685.667 537.667 668 521.333 655 500C642 478.667 635.5 453.167 635.5 423.5C635.5 395.5 639.5 369.667 647.5 346C655.5 322 667.167 301 682.5 283C697.833 265 716.5 251 738.5 241C760.833 231 786.333 226 815 226C839.667 226 861.667 230.167 881 238.5C900.333 246.833 916.167 259 928.5 275C940.833 290.667 949 310.167 953 333.5L870.5 352C868.5 332 862.833 317.333 853.5 308C844.167 298.333 830.5 293.5 812.5 293.5C797.167 293.5 783.833 297.667 772.5 306C761.167 314 751.667 324.5 744 337.5C736.333 350.5 730.667 364.667 727 380C723.667 395.333 722 410.333 722 425C722 440.333 724.667 453.5 730 464.5C735.333 475.167 743 483.5 753 489.5C763.333 495.5 775.5 498.5 789.5 498.5C806.5 498.5 819.833 494.167 829.5 485.5C839.167 476.5 847.333 464.833 854 450.5L931 480.5C916.667 506.833 897.667 527.667 874 543C850.333 558.333 820.333 566 784 566ZM1058.74 494.5H1225.24L1209.74 561H957.238L1033.74 231H1119.74L1058.74 494.5ZM1421.01 231L1344.51 561H1258.51L1335.01 231H1421.01ZM1416.71 561L1493.21 231H1601.71L1617.71 391L1622.21 472.5H1622.71L1662.71 391L1750.21 231H1873.21L1796.71 561H1720.71L1755.71 409.5L1779.21 312H1778.21L1639.71 561H1573.71L1546.71 314H1545.71L1527.71 409.5L1492.71 561H1416.71ZM1834.36 561L2025.36 231H2129.36L2166.36 561H2084.86L2078.36 483.5H1965.86L1923.86 561H1834.36ZM1996.86 425H2075.36L2065.36 297L1996.86 425ZM2510.42 231L2494.92 297.5H2388.42L2327.42 561H2241.42L2302.42 297.5H2194.92L2210.42 231H2510.42ZM2482.14 561L2558.64 231H2815.64L2799.64 297.5H2629.14L2613.64 364.5H2748.14L2733.64 427H2599.14L2583.64 494.5H2759.64L2744.14 561H2482.14Z" fill="white"/>
<path d="M1513.5 1161L1498 1227.5H1391.5L1330.5 1491H1244.5L1305.5 1227.5H1198L1213.5 1161H1513.5ZM1414.1 1491L1605.1 1161H1709.1L1746.1 1491H1664.6L1658.1 1413.5H1545.6L1503.6 1491H1414.1ZM1576.6 1355H1655.1L1645.1 1227L1576.6 1355ZM1941.58 1496.5C1918.25 1496.5 1896.25 1493.5 1875.58 1487.5C1854.92 1481.17 1836.25 1472 1819.58 1460C1803.25 1448 1789.25 1432.83 1777.58 1414.5L1828.08 1365C1836.08 1379 1846.08 1391 1858.08 1401C1870.42 1410.67 1883.75 1418 1898.08 1423C1912.42 1427.67 1926.75 1430 1941.08 1430C1951.42 1430 1959.75 1428.5 1966.08 1425.5C1972.75 1422.5 1977.75 1418.5 1981.08 1413.5C1984.42 1408.5 1986.08 1403.17 1986.08 1397.5C1986.08 1390.17 1983.42 1384.5 1978.08 1380.5C1972.75 1376.17 1964.75 1372.33 1954.08 1369L1904.58 1353C1889.58 1348 1875.92 1341.5 1863.58 1333.5C1851.58 1325.17 1842.08 1315 1835.08 1303C1828.08 1291 1824.58 1277.17 1824.58 1261.5C1824.58 1239.17 1830.25 1220.17 1841.58 1204.5C1853.25 1188.83 1869.08 1176.83 1889.08 1168.5C1909.42 1160.17 1932.58 1156 1958.58 1156C1992.92 1156 2021.92 1162.17 2045.58 1174.5C2069.25 1186.5 2088.75 1203.5 2104.08 1225.5L2051.58 1273.5C2044.58 1261.83 2036.08 1252.33 2026.08 1245C2016.42 1237.33 2005.75 1231.67 1994.08 1228C1982.42 1224.33 1970.58 1222.5 1958.58 1222.5C1948.58 1222.5 1940.25 1223.83 1933.58 1226.5C1926.92 1229.17 1921.92 1232.83 1918.58 1237.5C1915.58 1241.83 1914.08 1247 1914.08 1253C1914.08 1259.67 1917.25 1265.83 1923.58 1271.5C1930.25 1276.83 1938.92 1281.17 1949.58 1284.5L1999.08 1300.5C2024.08 1308.5 2043.08 1319.5 2056.08 1333.5C2069.08 1347.17 2075.58 1365.17 2075.58 1387.5C2075.58 1410.17 2069.58 1429.67 2057.58 1446C2045.92 1462.33 2029.92 1474.83 2009.58 1483.5C1989.25 1492.17 1966.58 1496.5 1941.58 1496.5ZM2102.41 1491L2178.91 1161H2264.91L2233.41 1295L2380.41 1161H2477.91L2329.41 1299.5L2404.41 1491H2315.91L2262.91 1354L2208.91 1402.5L2188.41 1491H2102.41ZM2756.19 1227.5H2591.69L2575.19 1297.5H2710.19L2694.69 1364H2560.19L2530.69 1491H2444.69L2521.19 1161H2771.69L2756.19 1227.5ZM2911.57 1496C2884.23 1496 2859.4 1490.33 2837.07 1479C2814.73 1467.67 2797.07 1451.17 2784.07 1429.5C2771.07 1407.5 2764.57 1381.17 2764.57 1350.5C2764.57 1323.17 2768.4 1297.67 2776.07 1274C2784.07 1250.33 2795.57 1229.67 2810.57 1212C2825.9 1194.33 2844.57 1180.67 2866.57 1171C2888.9 1161 2914.23 1156 2942.57 1156C2970.23 1156 2995.07 1161.83 3017.07 1173.5C3039.07 1184.83 3056.57 1201.33 3069.57 1223C3082.57 1244.33 3089.07 1270.5 3089.07 1301.5C3089.07 1328.83 3085.07 1354.33 3077.07 1378C3069.4 1401.33 3057.9 1422 3042.57 1440C3027.57 1457.67 3009.07 1471.5 2987.07 1481.5C2965.07 1491.17 2939.9 1496 2911.57 1496ZM2914.57 1428.5C2929.57 1428.5 2942.4 1424.5 2953.07 1416.5C2964.07 1408.5 2973.23 1398 2980.57 1385C2987.9 1371.67 2993.4 1357.17 2997.07 1341.5C3000.73 1325.83 3002.57 1310.5 3002.57 1295.5C3002.57 1280.17 3000.07 1267.17 2995.07 1256.5C2990.07 1245.83 2982.9 1237.67 2973.57 1232C2964.23 1226.33 2952.73 1223.5 2939.07 1223.5C2924.4 1223.5 2911.57 1227.5 2900.57 1235.5C2889.57 1243.5 2880.4 1254.17 2873.07 1267.5C2865.73 1280.5 2860.23 1294.83 2856.57 1310.5C2852.9 1325.83 2851.07 1341.17 2851.07 1356.5C2851.07 1371.83 2853.57 1384.83 2858.57 1395.5C2863.57 1406.17 2870.73 1414.33 2880.07 1420C2889.73 1425.67 2901.23 1428.5 2914.57 1428.5ZM3107.78 1491L3184.28 1161H3325.78C3359.78 1161 3386.61 1169.33 3406.28 1186C3426.28 1202.33 3436.28 1225.33 3436.28 1255C3436.28 1279 3430.61 1299.33 3419.28 1316C3408.28 1332.67 3393.28 1345.67 3374.28 1355C3355.28 1364 3333.78 1369 3309.78 1370L3290.78 1374.5H3211.78L3225.78 1313.5H3291.28C3304.28 1313.5 3315.11 1311.33 3323.78 1307C3332.78 1302.67 3339.61 1296.67 3344.28 1289C3348.94 1281 3351.28 1272.33 3351.28 1263C3351.28 1250 3346.94 1240.67 3338.28 1235C3329.61 1229 3318.44 1226 3304.78 1226H3253.78L3192.28 1491H3107.78ZM3321.28 1491L3267.28 1348L3345.28 1336L3408.28 1491H3321.28ZM3612.76 1496C3584.43 1496 3559.1 1490.33 3536.76 1479C3514.43 1467.67 3496.76 1451.33 3483.76 1430C3470.76 1408.67 3464.26 1383.17 3464.26 1353.5C3464.26 1325.5 3468.26 1299.67 3476.26 1276C3484.26 1252 3495.93 1231 3511.26 1213C3526.6 1195 3545.26 1181 3567.26 1171C3589.6 1161 3615.1 1156 3643.76 1156C3668.43 1156 3690.43 1160.17 3709.76 1168.5C3729.1 1176.83 3744.93 1189 3757.26 1205C3769.6 1220.67 3777.76 1240.17 3781.76 1263.5L3699.26 1282C3697.26 1262 3691.6 1247.33 3682.26 1238C3672.93 1228.33 3659.26 1223.5 3641.26 1223.5C3625.93 1223.5 3612.6 1227.67 3601.26 1236C3589.93 1244 3580.43 1254.5 3572.76 1267.5C3565.1 1280.5 3559.43 1294.67 3555.76 1310C3552.43 1325.33 3550.76 1340.33 3550.76 1355C3550.76 1370.33 3553.43 1383.5 3558.76 1394.5C3564.1 1405.17 3571.76 1413.5 3581.76 1419.5C3592.1 1425.5 3604.26 1428.5 3618.26 1428.5C3635.26 1428.5 3648.6 1424.17 3658.26 1415.5C3667.93 1406.5 3676.1 1394.83 3682.76 1380.5L3759.76 1410.5C3745.43 1436.83 3726.43 1457.67 3702.76 1473C3679.1 1488.33 3649.1 1496 3612.76 1496ZM3786 1491L3862.5 1161H4119.5L4103.5 1227.5H3933L3917.5 1294.5H4052L4037.5 1357H3903L3887.5 1424.5H4063.5L4048 1491H3786Z" fill="white"/>
<mask id="mask0_57_328" style="mask-type:alpha" maskUnits="userSpaceOnUse" x="0" y="0" width="1693" height="1693">
<circle cx="846.167" cy="846.167" r="846.167" fill="#D9D9D9"/>
</mask>
<g mask="url(#mask0_57_328)">
<path d="M1513.5 1161L1498 1227.5H1391.5L1330.5 1491H1244.5L1305.5 1227.5H1198L1213.5 1161H1513.5ZM1414.1 1491L1605.1 1161H1709.1L1746.1 1491H1664.6L1658.1 1413.5H1545.6L1503.6 1491H1414.1ZM1576.6 1355H1655.1L1645.1 1227L1576.6 1355ZM1941.58 1496.5C1918.25 1496.5 1896.25 1493.5 1875.58 1487.5C1854.92 1481.17 1836.25 1472 1819.58 1460C1803.25 1448 1789.25 1432.83 1777.58 1414.5L1828.08 1365C1836.08 1379 1846.08 1391 1858.08 1401C1870.42 1410.67 1883.75 1418 1898.08 1423C1912.42 1427.67 1926.75 1430 1941.08 1430C1951.42 1430 1959.75 1428.5 1966.08 1425.5C1972.75 1422.5 1977.75 1418.5 1981.08 1413.5C1984.42 1408.5 1986.08 1403.17 1986.08 1397.5C1986.08 1390.17 1983.42 1384.5 1978.08 1380.5C1972.75 1376.17 1964.75 1372.33 1954.08 1369L1904.58 1353C1889.58 1348 1875.92 1341.5 1863.58 1333.5C1851.58 1325.17 1842.08 1315 1835.08 1303C1828.08 1291 1824.58 1277.17 1824.58 1261.5C1824.58 1239.17 1830.25 1220.17 1841.58 1204.5C1853.25 1188.83 1869.08 1176.83 1889.08 1168.5C1909.42 1160.17 1932.58 1156 1958.58 1156C1992.92 1156 2021.92 1162.17 2045.58 1174.5C2069.25 1186.5 2088.75 1203.5 2104.08 1225.5L2051.58 1273.5C2044.58 1261.83 2036.08 1252.33 2026.08 1245C2016.42 1237.33 2005.75 1231.67 1994.08 1228C1982.42 1224.33 1970.58 1222.5 1958.58 1222.5C1948.58 1222.5 1940.25 1223.83 1933.58 1226.5C1926.92 1229.17 1921.92 1232.83 1918.58 1237.5C1915.58 1241.83 1914.08 1247 1914.08 1253C1914.08 1259.67 1917.25 1265.83 1923.58 1271.5C1930.25 1276.83 1938.92 1281.17 1949.58 1284.5L1999.08 1300.5C2024.08 1308.5 2043.08 1319.5 2056.08 1333.5C2069.08 1347.17 2075.58 1365.17 2075.58 1387.5C2075.58 1410.17 2069.58 1429.67 2057.58 1446C2045.92 1462.33 2029.92 1474.83 2009.58 1483.5C1989.25 1492.17 1966.58 1496.5 1941.58 1496.5ZM2102.41 1491L2178.91 1161H2264.91L2233.41 1295L2380.41 1161H2477.91L2329.41 1299.5L2404.41 1491H2315.91L2262.91 1354L2208.91 1402.5L2188.41 1491H2102.41ZM2756.19 1227.5H2591.69L2575.19 1297.5H2710.19L2694.69 1364H2560.19L2530.69 1491H2444.69L2521.19 1161H2771.69L2756.19 1227.5ZM2911.57 1496C2884.23 1496 2859.4 1490.33 2837.07 1479C2814.73 1467.67 2797.07 1451.17 2784.07 1429.5C2771.07 1407.5 2764.57 1381.17 2764.57 1350.5C2764.57 1323.17 2768.4 1297.67 2776.07 1274C2784.07 1250.33 2795.57 1229.67 2810.57 1212C2825.9 1194.33 2844.57 1180.67 2866.57 1171C2888.9 1161 2914.23 1156 2942.57 1156C2970.23 1156 2995.07 1161.83 3017.07 1173.5C3039.07 1184.83 3056.57 1201.33 3069.57 1223C3082.57 1244.33 3089.07 1270.5 3089.07 1301.5C3089.07 1328.83 3085.07 1354.33 3077.07 1378C3069.4 1401.33 3057.9 1422 3042.57 1440C3027.57 1457.67 3009.07 1471.5 2987.07 1481.5C2965.07 1491.17 2939.9 1496 2911.57 1496ZM2914.57 1428.5C2929.57 1428.5 2942.4 1424.5 2953.07 1416.5C2964.07 1408.5 2973.23 1398 2980.57 1385C2987.9 1371.67 2993.4 1357.17 2997.07 1341.5C3000.73 1325.83 3002.57 1310.5 3002.57 1295.5C3002.57 1280.17 3000.07 1267.17 2995.07 1256.5C2990.07 1245.83 2982.9 1237.67 2973.57 1232C2964.23 1226.33 2952.73 1223.5 2939.07 1223.5C2924.4 1223.5 2911.57 1227.5 2900.57 1235.5C2889.57 1243.5 2880.4 1254.17 2873.07 1267.5C2865.73 1280.5 2860.23 1294.83 2856.57 1310.5C2852.9 1325.83 2851.07 1341.17 2851.07 1356.5C2851.07 1371.83 2853.57 1384.83 2858.57 1395.5C2863.57 1406.17 2870.73 1414.33 2880.07 1420C2889.73 1425.67 2901.23 1428.5 2914.57 1428.5ZM3107.78 1491L3184.28 1161H3325.78C3359.78 1161 3386.61 1169.33 3406.28 1186C3426.28 1202.33 3436.28 1225.33 3436.28 1255C3436.28 1279 3430.61 1299.33 3419.28 1316C3408.28 1332.67 3393.28 1345.67 3374.28 1355C3355.28 1364 3333.78 1369 3309.78 1370L3290.78 1374.5H3211.78L3225.78 1313.5H3291.28C3304.28 1313.5 3315.11 1311.33 3323.78 1307C3332.78 1302.67 3339.61 1296.67 3344.28 1289C3348.94 1281 3351.28 1272.33 3351.28 1263C3351.28 1250 3346.94 1240.67 3338.28 1235C3329.61 1229 3318.44 1226 3304.78 1226H3253.78L3192.28 1491H3107.78ZM3321.28 1491L3267.28 1348L3345.28 1336L3408.28 1491H3321.28ZM3612.76 1496C3584.43 1496 3559.1 1490.33 3536.76 1479C3514.43 1467.67 3496.76 1451.33 3483.76 1430C3470.76 1408.67 3464.26 1383.17 3464.26 1353.5C3464.26 1325.5 3468.26 1299.67 3476.26 1276C3484.26 1252 3495.93 1231 3511.26 1213C3526.6 1195 3545.26 1181 3567.26 1171C3589.6 1161 3615.1 1156 3643.76 1156C3668.43 1156 3690.43 1160.17 3709.76 1168.5C3729.1 1176.83 3744.93 1189 3757.26 1205C3769.6 1220.67 3777.76 1240.17 3781.76 1263.5L3699.26 1282C3697.26 1262 3691.6 1247.33 3682.26 1238C3672.93 1228.33 3659.26 1223.5 3641.26 1223.5C3625.93 1223.5 3612.6 1227.67 3601.26 1236C3589.93 1244 3580.43 1254.5 3572.76 1267.5C3565.1 1280.5 3559.43 1294.67 3555.76 1310C3552.43 1325.33 3550.76 1340.33 3550.76 1355C3550.76 1370.33 3553.43 1383.5 3558.76 1394.5C3564.1 1405.17 3571.76 1413.5 3581.76 1419.5C3592.1 1425.5 3604.26 1428.5 3618.26 1428.5C3635.26 1428.5 3648.6 1424.17 3658.26 1415.5C3667.93 1406.5 3676.1 1394.83 3682.76 1380.5L3759.76 1410.5C3745.43 1436.83 3726.43 1457.67 3702.76 1473C3679.1 1488.33 3649.1 1496 3612.76 1496ZM3786 1491L3862.5 1161H4119.5L4103.5 1227.5H3933L3917.5 1294.5H4052L4037.5 1357H3903L3887.5 1424.5H4063.5L4048 1491H3786Z" fill="black"/>
<path d="M899.5 1026L1090.5 696H1194.5L1231.5 1026H1150L1143.5 948.5H1031L989 1026H899.5ZM1062 890H1140.5L1130.5 762L1062 890ZM1269.45 1026L1345.95 696H1487.45C1521.45 696 1548.28 704.333 1567.95 721C1587.95 737.333 1597.95 760.333 1597.95 790C1597.95 814 1592.28 834.333 1580.95 851C1569.95 867.667 1554.95 880.667 1535.95 890C1516.95 899 1495.45 904 1471.45 905L1452.45 909.5H1373.45L1387.45 848.5H1452.95C1465.95 848.5 1476.78 846.333 1485.45 842C1494.45 837.667 1501.28 831.667 1505.95 824C1510.62 816 1512.95 807.333 1512.95 798C1512.95 785 1508.62 775.667 1499.95 770C1491.28 764 1480.12 761 1466.45 761H1415.45L1353.95 1026H1269.45ZM1482.95 1026L1428.95 883L1506.95 871L1569.95 1026H1482.95ZM1946.17 696L1930.67 762.5H1824.17L1763.17 1026H1677.17L1738.17 762.5H1630.67L1646.17 696H1946.17Z" fill="black"/>
<path d="M784 566C755.667 566 730.333 560.333 708 549C685.667 537.667 668 521.333 655 500C642 478.667 635.5 453.167 635.5 423.5C635.5 395.5 639.5 369.667 647.5 346C655.5 322 667.167 301 682.5 283C697.833 265 716.5 251 738.5 241C760.833 231 786.333 226 815 226C839.667 226 861.667 230.167 881 238.5C900.333 246.833 916.167 259 928.5 275C940.833 290.667 949 310.167 953 333.5L870.5 352C868.5 332 862.833 317.333 853.5 308C844.167 298.333 830.5 293.5 812.5 293.5C797.167 293.5 783.833 297.667 772.5 306C761.167 314 751.667 324.5 744 337.5C736.333 350.5 730.667 364.667 727 380C723.667 395.333 722 410.333 722 425C722 440.333 724.667 453.5 730 464.5C735.333 475.167 743 483.5 753 489.5C763.333 495.5 775.5 498.5 789.5 498.5C806.5 498.5 819.833 494.167 829.5 485.5C839.167 476.5 847.333 464.833 854 450.5L931 480.5C916.667 506.833 897.667 527.667 874 543C850.333 558.333 820.333 566 784 566ZM1058.74 494.5H1225.24L1209.74 561H957.238L1033.74 231H1119.74L1058.74 494.5ZM1421.01 231L1344.51 561H1258.51L1335.01 231H1421.01ZM1416.71 561L1493.21 231H1601.71L1617.71 391L1622.21 472.5H1622.71L1662.71 391L1750.21 231H1873.21L1796.71 561H1720.71L1755.71 409.5L1779.21 312H1778.21L1639.71 561H1573.71L1546.71 314H1545.71L1527.71 409.5L1492.71 561H1416.71ZM1834.36 561L2025.36 231H2129.36L2166.36 561H2084.86L2078.36 483.5H1965.86L1923.86 561H1834.36ZM1996.86 425H2075.36L2065.36 297L1996.86 425ZM2510.42 231L2494.92 297.5H2388.42L2327.42 561H2241.42L2302.42 297.5H2194.92L2210.42 231H2510.42ZM2482.14 561L2558.64 231H2815.64L2799.64 297.5H2629.14L2613.64 364.5H2748.14L2733.64 427H2599.14L2583.64 494.5H2759.64L2744.14 561H2482.14Z" fill="black"/>
</g>
<defs>
<radialGradient id="paint0_radial_57_328" cx="0" cy="0" r="1" gradientUnits="userSpaceOnUse" gradientTransform="translate(852.167 846.167) rotate(90.0096) scale(990.333)">
<stop stop-color="#005F99"/>
<stop offset="1" stop-color="#005F99" stop-opacity="0"/>
</radialGradient>
</defs>
</svg>
