<svg width="6426" height="2656" viewBox="0 0 6426 2656" fill="none" xmlns="http://www.w3.org/2000/svg">
<path d="M1320 699H1651V832H1148V172H1320V699ZM1921.56 172V832H1749.56V172H1921.56ZM2831.92 172V832H2679.92V529L2684.92 326H2682.92L2519.92 832H2380.92L2217.92 326H2215.92L2220.92 529V832H2067.92V172H2312.92L2416.92 508L2453.92 648H2455.92L2493.92 509L2596.92 172H2831.92ZM3578.08 832H3401.08L3355.08 683H3129.08L3082.08 832H2909.08L3141.08 172H3347.08L3578.08 832ZM3161.08 566H3323.08L3242.08 299L3161.08 566ZM4126.83 172V305H3911.83V832H3739.83V305H3523.83V172H4126.83ZM4225.15 832V172H4739.15V305H4397.15V439H4669.15V564H4397.15V699H4752.15V832H4225.15Z" fill="black"/>
<path d="M1463 977C1541.67 977 1602.67 995.667 1646 1033C1690 1069.67 1712 1118.67 1712 1180C1712 1247.33 1690.33 1298.67 1647 1334C1603.67 1369.33 1542.67 1387 1464 1387L1448 1396H1317V1637H1148V977H1463ZM1439 1274C1472.33 1274 1497.33 1267.33 1514 1254C1530.67 1240.67 1539 1219.33 1539 1190C1539 1161.33 1530.67 1140.33 1514 1127C1497.33 1113.67 1472.33 1107 1439 1107H1317V1274H1439ZM1540 1310L1751 1637H1561L1392 1348L1540 1310ZM2384.64 977V1110H2169.64V1637H1997.64V1110H1781.64V977H2384.64Z" fill="black"/>
<path d="M1748 2535H1571L1525 2386H1299L1252 2535H1079L1311 1875H1517L1748 2535ZM1331 2269H1493L1412 2002L1331 2269ZM2079.83 1865C2141.16 1865 2195.16 1874.67 2241.83 1894C2289.16 1912.67 2330.16 1940.33 2364.83 1977L2281.83 2088C2253.16 2058 2222.16 2035.67 2188.83 2021C2156.16 2005.67 2118.83 1998 2076.83 1998C2052.16 1998 2032.16 2000.67 2016.83 2006C2001.49 2011.33 1990.49 2018.67 1983.83 2028C1977.16 2037.33 1973.83 2048 1973.83 2060C1973.83 2074 1980.16 2086 1992.83 2096C2006.16 2105.33 2027.49 2113.33 2056.83 2120L2167.83 2145C2233.83 2160.33 2282.16 2182.67 2312.83 2212C2343.49 2241.33 2358.83 2280.33 2358.83 2329C2358.83 2375.67 2346.83 2415.33 2322.83 2448C2298.83 2480 2265.83 2504.33 2223.83 2521C2181.83 2537 2133.83 2545 2079.83 2545C2035.83 2545 1993.83 2540.33 1953.83 2531C1913.83 2521 1877.83 2507 1845.83 2489C1813.83 2471 1786.83 2450.33 1764.83 2427L1847.83 2312C1864.49 2331.33 1884.83 2348.67 1908.83 2364C1933.49 2378.67 1960.16 2390.33 1988.83 2399C2018.16 2407.67 2047.83 2412 2077.83 2412C2101.16 2412 2120.49 2409.67 2135.83 2405C2151.83 2400.33 2163.49 2393.33 2170.83 2384C2178.16 2374.67 2181.83 2363.67 2181.83 2351C2181.83 2337 2176.83 2325.33 2166.83 2316C2156.83 2306 2137.83 2297.67 2109.83 2291L1987.83 2264C1950.49 2255.33 1917.16 2244 1887.83 2230C1859.16 2215.33 1836.49 2196 1819.83 2172C1803.16 2147.33 1794.83 2116.67 1794.83 2080C1794.83 2038.67 1806.16 2002 1828.83 1970C1851.49 1937.33 1884.16 1911.67 1926.83 1893C1969.49 1874.33 2020.49 1865 2079.83 1865ZM3065.36 1875L2755.36 2246L2744.36 2220L2587.36 2411L2554.36 2272L2874.36 1875H3065.36ZM2638.36 1875V2535H2466.36V1875H2638.36ZM2811.36 2093L3077.36 2535H2882.36L2682.36 2189L2811.36 2093ZM3672.72 2008H3331.72V2148H3603.72V2281H3331.72V2535H3159.72V1875H3672.72V2008ZM4063.14 1865C4129.81 1865 4187.14 1878.67 4235.14 1906C4283.81 1932.67 4321.14 1971.33 4347.14 2022C4373.14 2072.67 4386.14 2133.67 4386.14 2205C4386.14 2276.33 4373.14 2337.33 4347.14 2388C4321.14 2438.67 4283.81 2477.67 4235.14 2505C4187.14 2531.67 4129.81 2545 4063.14 2545C3996.47 2545 3938.81 2531.67 3890.14 2505C3841.47 2477.67 3804.14 2438.67 3778.14 2388C3752.14 2337.33 3739.14 2276.33 3739.14 2205C3739.14 2133.67 3752.14 2072.67 3778.14 2022C3804.14 1971.33 3841.47 1932.67 3890.14 1906C3938.81 1878.67 3996.47 1865 4063.14 1865ZM4063.14 2000C4031.14 2000 4004.14 2007.67 3982.14 2023C3960.14 2038.33 3943.47 2061.33 3932.14 2092C3920.81 2122 3915.14 2159.67 3915.14 2205C3915.14 2249.67 3920.81 2287.33 3932.14 2318C3943.47 2348.67 3960.14 2371.67 3982.14 2387C4004.14 2402.33 4031.14 2410 4063.14 2410C4095.14 2410 4121.81 2402.33 4143.14 2387C4165.14 2371.67 4181.81 2348.67 4193.14 2318C4204.47 2287.33 4210.14 2249.67 4210.14 2205C4210.14 2159.67 4204.47 2122 4193.14 2092C4181.81 2061.33 4165.14 2038.33 4143.14 2023C4121.81 2007.67 4095.14 2000 4063.14 2000ZM4819.45 1875C4898.11 1875 4959.11 1893.67 5002.45 1931C5046.45 1967.67 5068.45 2016.67 5068.45 2078C5068.45 2145.33 5046.78 2196.67 5003.45 2232C4960.11 2267.33 4899.11 2285 4820.45 2285L4804.45 2294H4673.45V2535H4504.45V1875H4819.45ZM4795.45 2172C4828.78 2172 4853.78 2165.33 4870.45 2152C4887.11 2138.67 4895.45 2117.33 4895.45 2088C4895.45 2059.33 4887.11 2038.33 4870.45 2025C4853.78 2011.67 4828.78 2005 4795.45 2005H4673.45V2172H4795.45ZM4896.45 2208L5107.45 2535H4917.45L4748.45 2246L4896.45 2208ZM5772.06 2346C5759.4 2392 5739.06 2430 5711.06 2460C5683.06 2489.33 5649.73 2511 5611.06 2525C5572.4 2538.33 5529.73 2545 5483.06 2545C5416.4 2545 5358.73 2531.67 5310.06 2505C5261.4 2477.67 5224.06 2438.67 5198.06 2388C5172.06 2337.33 5159.06 2276.33 5159.06 2205C5159.06 2133.67 5172.06 2072.67 5198.06 2022C5224.06 1971.33 5261.4 1932.67 5310.06 1906C5358.73 1878.67 5416.06 1865 5482.06 1865C5528.06 1865 5570.4 1871.67 5609.06 1885C5647.73 1897.67 5680.4 1917.33 5707.06 1944C5733.73 1970.67 5752.73 2005 5764.06 2047L5613.06 2108C5603.73 2066.67 5588.4 2038.33 5567.06 2023C5546.4 2007.67 5520.06 2000 5488.06 2000C5456.73 2000 5429.4 2007.67 5406.06 2023C5383.4 2038.33 5365.73 2061.33 5353.06 2092C5341.06 2122 5335.06 2159.67 5335.06 2205C5335.06 2249.67 5340.73 2287.33 5352.06 2318C5363.4 2348.67 5380.4 2371.67 5403.06 2387C5426.4 2402.33 5455.06 2410 5489.06 2410C5521.06 2410 5548.06 2401.33 5570.06 2384C5592.73 2366 5608.06 2338.67 5616.06 2302L5772.06 2346ZM5867.73 2535V1875H6381.73V2008H6039.73V2142H6311.73V2267H6039.73V2402H6394.73V2535H5867.73Z" fill="black"/>
<path d="M557.72 2536C526.928 2589.33 449.948 2589.33 419.156 2536L69.2819 1930C38.4899 1876.67 76.9799 1810 138.564 1810L838.313 1810C899.897 1810 938.387 1876.67 907.595 1930L557.72 2536Z" fill="#FF7373" fill-opacity="0.7"/>
<path d="M419.156 990C449.948 936.667 526.928 936.667 557.72 990L907.595 1596C938.387 1649.33 899.897 1716 838.313 1716H138.564C76.98 1716 38.49 1649.33 69.282 1596L419.156 990Z" fill="#007BFF" fill-opacity="0.7"/>
<path d="M120 557.72C66.6667 526.928 66.6666 449.948 120 419.156L726 69.2821C779.333 38.4901 846 76.9801 846 138.564L846 838.313C846 899.897 779.333 938.387 726 907.595L120 557.72Z" fill="#02E2C7" fill-opacity="0.7"/>
</svg>
