<?xml version="1.0" encoding="UTF-8" standalone="no"?>
<!-- Created with Inkscape (http://www.inkscape.org/) -->

<svg
   xmlns:dc="http://purl.org/dc/elements/1.1/"
   xmlns:cc="http://creativecommons.org/ns#"
   xmlns:rdf="http://www.w3.org/1999/02/22-rdf-syntax-ns#"
   xmlns:svg="http://www.w3.org/2000/svg"
   xmlns="http://www.w3.org/2000/svg"
   xmlns:sodipodi="http://sodipodi.sourceforge.net/DTD/sodipodi-0.dtd"
   xmlns:inkscape="http://www.inkscape.org/namespaces/inkscape"
   version="1.1"
   id="svg2"
   xml:space="preserve"
   width="718.98669"
   height="219.61333"
   viewBox="0 0 718.98669 219.61333"
   sodipodi:docname="logo.svg"
   inkscape:version="0.92.4 (5da689c313, 2019-01-14)"><metadata
     id="metadata8"><rdf:RDF><cc:Work
         rdf:about=""><dc:format>image/svg+xml</dc:format><dc:type
           rdf:resource="http://purl.org/dc/dcmitype/StillImage" /><dc:title></dc:title></cc:Work></rdf:RDF></metadata><defs
     id="defs6" /><sodipodi:namedview
     pagecolor="#ffffff"
     bordercolor="#666666"
     borderopacity="1"
     objecttolerance="10"
     gridtolerance="10"
     guidetolerance="10"
     inkscape:pageopacity="0"
     inkscape:pageshadow="2"
     inkscape:window-width="2138"
     inkscape:window-height="1301"
     id="namedview4"
     showgrid="false"
     inkscape:zoom="0.82059933"
     inkscape:cx="359.49335"
     inkscape:cy="109.80666"
     inkscape:window-x="1116"
     inkscape:window-y="317"
     inkscape:window-maximized="0"
     inkscape:current-layer="g10" /><g
     id="g10"
     inkscape:groupmode="layer"
     inkscape:label="ink_ext_XXXXXX"
     transform="matrix(1.3333333,0,0,-1.3333333,0,219.61333)"><g
       id="g12"
       transform="scale(0.1)"><path
         d="M 1854.48,1646.25 1436.34,791.715 h 107.12 l 414.48,854.535 h -103.46"
         style="fill:#0e090e;fill-opacity:1;fill-rule:nonzero;stroke:none"
         id="path14"
         inkscape:connector-curvature="0" /><path
         d="M 1495.4,1646.25 1077.25,791.715 h 107.12 l 414.47,854.535 H 1495.4"
         style="fill:#0e090e;fill-opacity:1;fill-rule:nonzero;stroke:none"
         id="path16"
         inkscape:connector-curvature="0" /><path
         d="M 1136.3,1646.25 718.184,791.715 H 825.285 L 1239.76,1646.25 H 1136.3"
         style="fill:#0e090e;fill-opacity:1;fill-rule:nonzero;stroke:none"
         id="path18"
         inkscape:connector-curvature="0" /><path
         d="M 777.215,1646.25 359.094,791.715 H 466.203 L 880.676,1646.25 H 777.215"
         style="fill:#0e090e;fill-opacity:1;fill-rule:nonzero;stroke:none"
         id="path20"
         inkscape:connector-curvature="0" /><path
         d="M 418.133,1646.25 0,791.715 H 107.121 L 521.594,1646.25 H 418.133"
         style="fill:#0e090e;fill-opacity:1;fill-rule:nonzero;stroke:none"
         id="path22"
         inkscape:connector-curvature="0" /><path
         d="M 2213.56,1646.25 1795.44,791.715 h 107.11 l 414.47,854.535 h -103.46"
         style="fill:#0e090e;fill-opacity:1;fill-rule:nonzero;stroke:none"
         id="path24"
         inkscape:connector-curvature="0" /><path
         d="m 2984.62,791.711 h 187.21 V 1646.4 H 2984.62 V 791.711"
         style="fill:#0e090e;fill-opacity:1;fill-rule:nonzero;stroke:none"
         id="path26"
         inkscape:connector-curvature="0" /><path
         d="M 2569.76,1646.27 2154.54,791.719 h 185.95 l 420.08,854.551 h -190.81"
         style="fill:#0e090e;fill-opacity:1;fill-rule:nonzero;stroke:none"
         id="path28"
         inkscape:connector-curvature="0" /><path
         d="m 4290.25,791.711 h 187.22 V 1646.4 H 4290.25 V 791.711"
         style="fill:#0e090e;fill-opacity:1;fill-rule:nonzero;stroke:none"
         id="path30"
         inkscape:connector-curvature="0" /><path
         d="m 4742.77,791.711 h 187.21 V 1646.4 H 4742.77 V 791.711"
         style="fill:#0e090e;fill-opacity:1;fill-rule:nonzero;stroke:none"
         id="path32"
         inkscape:connector-curvature="0" /><path
         d="M 5195.29,791.711 H 5382.5 V 1646.4 H 5195.29 V 791.711"
         style="fill:#0e090e;fill-opacity:1;fill-rule:nonzero;stroke:none"
         id="path34"
         inkscape:connector-curvature="0" /><path
         d="m 3995.72,1647.09 -658.87,-355.74 v -149.03 l 658.87,-350.953 v 187.145 l -465.63,238.308 465.63,241.92 v 188.35"
         style="fill:#0e090e;fill-opacity:1;fill-rule:nonzero;stroke:none"
         id="path36"
         inkscape:connector-curvature="0" /><path
         d="m 225.379,5.12891 c -0.543,12.64059 -0.875,24.94139 -1.004,36.94139 -0.133,11.9688 -0.199,24.1485 -0.199,36.5195 V 204.191 H 165.934 V 101.102 c 0,-7.1137 -0.528,-14.2817 -1.586,-21.5122 -1.075,-7.2617 -3.196,-13.7617 -6.383,-19.5507 -3.188,-5.8086 -7.578,-10.5391 -13.168,-14.2188 -5.582,-3.6914 -12.902,-5.539 -21.945,-5.539 -9.036,0 -16.086,1.7187 -21.137,5.1406 -5.047,3.4062 -8.7697,7.8984 -11.172,13.4179 -2.3867,5.5313 -3.8477,11.7813 -4.3789,18.7618 -0.5391,6.9882 -0.8008,13.8867 -0.8008,20.75 V 204.191 H 27.125 V 75.4414 c 0,-23.9726 5.9805,-42.2031 17.9492,-54.7031 C 57.0469,8.23047 75.5234,1.98047 100.523,1.98047 c 14.891,0 27.321,2.69141 37.29,8.08983 9.98,5.3985 19.484,13.8789 28.523,25.4688 l 0.801,-30.41019 z m 309.934,0 V 133.879 c 0,23.973 -6.047,42.199 -18.149,54.711 -12.109,12.5 -30.516,18.75 -55.25,18.75 -14.891,0 -27.391,-2.699 -37.488,-8.102 -10.113,-5.386 -19.692,-13.886 -28.723,-25.457 l -0.801,30.41 h -57.836 c 0.528,-6.851 0.926,-13.5 1.196,-19.953 0.265,-6.457 0.39,-12.84 0.39,-19.16 V 5.12891 h 58.243 V 105.461 c 0,5.519 0.46,11.969 1.402,19.34 0.93,7.371 2.922,14.289 5.976,20.73 3.063,6.457 7.309,11.918 12.774,16.391 5.441,4.476 12.816,6.719 22.141,6.719 9.027,0 16.078,-1.711 21.136,-5.141 5.039,-3.422 8.832,-7.898 11.371,-13.43 2.52,-5.511 4.047,-11.769 4.582,-18.761 0.528,-6.969 0.797,-13.879 0.797,-20.731 V 5.12891 Z m 315.523,0 C 850.035,14.0898 849.566,23.0313 849.434,32 c -0.129,8.9297 -0.2,17.7617 -0.2,26.4492 V 290.68 H 790.992 V 178.91 c -8.504,11.051 -17.949,18.828 -28.316,23.301 -10.371,4.48 -22.602,6.711 -36.692,6.711 -15.699,0 -28.992,-3.102 -39.89,-9.281 -10.906,-6.192 -19.887,-14.289 -26.926,-24.289 -7.051,-10 -12.176,-21.192 -15.363,-33.571 -3.188,-12.383 -4.782,-24.883 -4.782,-37.519 0,-13.9612 1.719,-27.1214 5.18,-39.4925 3.449,-12.3711 8.84,-23.3086 16.16,-32.7695 7.313,-9.4805 16.551,-16.9883 27.723,-22.51953 11.168,-5.53125 24.461,-8.28906 39.891,-8.28906 14.089,0 25.789,2.42968 35.097,7.29687 9.309,4.88282 18.481,12.57032 27.531,23.11332 l 1.59,-26.47269 z M 790.008,82.9414 c -1.473,-7.8906 -3.992,-15.1523 -7.586,-21.7226 -3.586,-6.5782 -8.32,-12.0391 -14.16,-16.3985 -5.848,-4.3398 -13.293,-6.5 -22.336,-6.5 -9.84,0 -17.821,2.1016 -23.934,6.3086 -6.117,4.1992 -10.906,9.543 -14.359,15.9922 -3.457,6.457 -5.86,13.75 -7.18,21.9297 -1.34,8.1484 -2,16.1875 -2,24.0902 0,7.359 0.602,14.937 1.801,22.699 1.191,7.769 3.453,14.879 6.777,21.332 3.321,6.457 7.844,11.707 13.567,15.789 5.718,4.078 13.086,6.129 22.136,6.129 9.297,0 17.082,-2.051 23.332,-6.129 6.25,-4.082 11.297,-9.332 15.161,-15.789 3.847,-6.453 6.652,-13.621 8.378,-21.524 1.731,-7.898 2.59,-15.796 2.59,-23.687 0,-7.1094 -0.73,-14.6212 -2.187,-22.5196 M 1462.05,5.12891 V 128.762 c 0,11.84 -1.33,22.558 -4,32.179 -2.65,9.598 -6.9,17.84 -12.75,24.688 -5.85,6.832 -13.36,12.16 -22.55,15.98 -9.17,3.832 -20.14,5.731 -32.91,5.731 -15.15,0 -28.97,-3.031 -41.47,-9.078 -12.5,-6.063 -22.61,-15.801 -30.33,-29.231 -5.57,13.949 -13.89,23.828 -24.93,29.617 -11.03,5.793 -23.87,8.692 -38.48,8.692 -14.37,0 -27.26,-2.629 -38.7,-7.899 -11.43,-5.261 -21,-14.089 -28.72,-26.461 l -1.6,31.211 h -57.04 c 0.54,-11.332 0.94,-22.461 1.2,-33.382 0.27,-10.93 0.39,-21.918 0.39,-32.969 V 5.12891 h 58.24 V 115.328 c 0,6.832 0.67,13.481 2.01,19.934 1.31,6.457 3.58,12.109 6.77,16.988 3.2,4.879 7.45,8.82 12.77,11.852 5.31,3.027 11.96,4.539 19.95,4.539 7.98,0 14.41,-1.512 19.33,-4.539 4.93,-3.032 8.72,-7.043 11.37,-12.043 2.67,-5.008 4.4,-10.668 5.2,-16.989 0.8,-6.308 1.19,-12.781 1.19,-19.359 V 5.12891 h 58.23 V 114.141 c 0,7.109 0.54,13.879 1.6,20.339 1.07,6.442 3.06,12.239 5.99,17.372 2.93,5.148 7.03,9.218 12.36,12.25 5.31,3.027 12.24,4.539 20.74,4.539 8.51,0 15.3,-1.45 20.35,-4.352 5.05,-2.898 8.83,-6.769 11.36,-11.648 2.53,-4.871 4.19,-10.461 4.99,-16.77 0.8,-6.32 1.2,-12.91 1.2,-19.762 V 5.12891 Z m 301.56,88.47269 c 0,11.8594 -0.39,22.8984 -1.19,33.1684 -0.8,10.281 -3.33,20.281 -7.59,30.019 -3.98,9.211 -8.97,17.191 -14.95,23.891 -5.99,6.718 -12.83,12.261 -20.55,16.59 -7.71,4.339 -16.09,7.5 -25.12,9.48 -9.06,1.969 -18.49,2.961 -28.32,2.961 -34.58,0 -60.57,-9.742 -77.99,-29.223 -17.42,-19.488 -26.14,-45.816 -26.14,-78.988 0,-32.3789 8.84,-57.2695 26.54,-74.6484 17.67,-17.37113 42.88,-26.050819 75.58,-26.050819 11.7,0 23.08,1.179689 34.11,3.539059 11.04,2.37891 20.94,6.24996 29.71,11.64846 8.78,5.3906 16.16,12.5 22.14,21.332 6,8.8281 9.91,19.6914 11.78,32.5899 h -56.64 c -3.2,-23.1797 -16.63,-34.7618 -40.3,-34.7618 -8.51,0 -15.7,1.6407 -21.54,4.9297 -5.85,3.3008 -10.63,7.6407 -14.35,13.043 -3.73,5.3906 -6.38,11.5781 -7.98,18.5703 -1.6,6.9688 -2.4,14.2695 -2.4,21.9102 z m -144,33.1684 c 0,14.109 4.05,25.73 12.16,34.878 8.12,9.133 19.36,13.704 33.71,13.704 14.1,0 24.59,-4.372 31.52,-13.122 6.9,-8.761 10.37,-20.558 10.37,-35.46 z M 2062.78,5.12891 c -0.8,8.96089 -1.28,17.90239 -1.41,26.87109 -0.12,8.9297 -0.19,17.7617 -0.19,26.4492 V 290.68 h -58.24 V 178.91 c -8.52,11.051 -17.95,18.828 -28.32,23.301 -10.38,4.48 -22.6,6.711 -36.69,6.711 -15.71,0 -29,-3.102 -39.9,-9.281 -10.9,-6.192 -19.89,-14.289 -26.92,-24.289 -7.05,-10 -12.18,-21.192 -15.36,-33.571 -3.19,-12.383 -4.79,-24.883 -4.79,-37.519 0,-13.9612 1.72,-27.1214 5.19,-39.4925 3.45,-12.3711 8.84,-23.3086 16.15,-32.7695 7.32,-9.4805 16.55,-16.9883 27.73,-22.51953 11.17,-5.53125 24.46,-8.28906 39.89,-8.28906 14.08,0 25.79,2.42968 35.1,7.29687 9.3,4.88282 18.47,12.57032 27.53,23.11332 l 1.59,-26.47269 z m -60.83,77.81249 c -1.47,-7.8906 -3.99,-15.1523 -7.59,-21.7226 -3.58,-6.5782 -8.32,-12.0391 -14.16,-16.3985 -5.85,-4.3398 -13.3,-6.5 -22.33,-6.5 -9.85,0 -17.82,2.1016 -23.94,6.3086 -6.11,4.1992 -10.91,9.543 -14.35,15.9922 -3.46,6.457 -5.86,13.75 -7.18,21.9297 -1.35,8.1484 -2,16.1875 -2,24.0902 0,7.359 0.59,14.937 1.79,22.699 1.2,7.769 3.45,14.879 6.78,21.332 3.32,6.457 7.84,11.707 13.57,15.789 5.72,4.078 13.08,6.129 22.13,6.129 9.3,0 17.08,-2.051 23.33,-6.129 6.25,-4.082 11.3,-9.332 15.16,-15.789 3.86,-6.453 6.65,-13.621 8.39,-21.524 1.73,-7.898 2.59,-15.796 2.59,-23.687 0,-7.1094 -0.74,-14.6212 -2.19,-22.5196 M 2235.09,290.68 h -60.62 v -45.821 h 60.62 z m -1.2,-86.09 h -58.24 V 5.12891 h 58.24 z M 2536.66,93.6016 c 0,11.8594 -0.4,22.8984 -1.2,33.1684 -0.8,10.281 -3.33,20.281 -7.58,30.019 -3.99,9.211 -8.98,17.191 -14.95,23.891 -5.99,6.718 -12.85,12.261 -20.55,16.59 -7.72,4.339 -16.09,7.5 -25.14,9.48 -9.03,1.969 -18.47,2.961 -28.32,2.961 -34.57,0 -60.56,-9.742 -77.98,-29.223 -17.42,-19.488 -26.13,-45.816 -26.13,-78.988 0,-32.3789 8.85,-57.2695 26.53,-74.6484 17.69,-17.37113 42.89,-26.050819 75.6,-26.050819 11.7,0 23.06,1.179689 34.09,3.539059 11.04,2.37891 20.95,6.24996 29.73,11.64846 8.78,5.3906 16.14,12.5 22.14,21.332 5.97,8.8281 9.9,19.6914 11.76,32.5899 h -56.65 c -3.19,-23.1797 -16.62,-34.7618 -40.29,-34.7618 -8.5,0 -15.68,1.6407 -21.53,4.9297 -5.85,3.3008 -10.65,7.6407 -14.37,13.043 -3.72,5.3906 -6.37,11.5781 -7.97,18.5703 -1.6,6.9688 -2.4,14.2695 -2.4,21.9102 z M 2392.65,126.77 c 0,14.109 4.06,25.73 12.17,34.878 8.11,9.133 19.35,13.704 33.7,13.704 14.09,0 24.6,-4.372 31.52,-13.122 6.92,-8.761 10.38,-20.558 10.38,-35.46 z M 2834.22,5.12891 V 133.879 c 0,23.973 -6.05,42.199 -18.15,54.711 -12.11,12.5 -30.52,18.75 -55.24,18.75 -14.9,0 -27.4,-2.699 -37.49,-8.102 -10.11,-5.386 -19.69,-13.886 -28.72,-25.457 l -0.81,30.41 h -57.84 c 0.53,-6.851 0.93,-13.5 1.2,-19.953 0.27,-6.457 0.39,-12.84 0.39,-19.16 V 5.12891 h 58.25 V 105.461 c 0,5.519 0.46,11.969 1.39,19.34 0.93,7.371 2.92,14.289 5.98,20.73 3.07,6.457 7.31,11.918 12.77,16.391 5.44,4.476 12.83,6.719 22.14,6.719 9.04,0 16.09,-1.711 21.14,-5.141 5.05,-3.422 8.83,-7.898 11.37,-13.43 2.52,-5.511 4.05,-11.769 4.58,-18.761 0.54,-6.969 0.8,-13.879 0.8,-20.731 V 5.12891 Z m 488.75,0 -90.94,114.53109 82.18,84.93 h -70.22 L 3166.22,116.898 3248.79,5.12891 Z M 3166.22,290.68 h -58.25 V 5.12891 h 58.25 z m 426,-285.55109 c -1.59,11.85939 -2.53,23.35939 -2.79,34.56249 -0.26,11.1992 -0.39,22.4492 -0.39,33.7695 v 59.2381 c 0,16.321 -2.06,29.551 -6.18,39.692 -4.13,10.14 -9.97,17.968 -17.55,23.5 -7.59,5.531 -16.77,9.281 -27.54,11.25 -10.76,1.98 -22.93,2.968 -36.49,2.968 -10.64,0 -21.22,-0.988 -31.71,-2.968 -10.51,-1.969 -20.08,-5.332 -28.72,-10.071 -8.65,-4.73 -15.63,-11.179 -20.94,-19.34 -5.32,-8.171 -8.12,-18.308 -8.39,-30.421 h 59.44 c 0,9.211 2.4,16.722 7.18,22.519 4.8,5.781 12.76,8.684 23.94,8.684 6.37,0 11.57,-1.172 15.55,-3.551 4,-2.371 7.11,-5.473 9.38,-9.289 2.25,-3.82 3.72,-8.223 4.38,-13.223 0.67,-5 1.01,-10.14 1.01,-15.398 v -7.5 h -16.37 c -11.7,0 -24.39,-0.602 -38.08,-1.789 -13.71,-1.172 -26.47,-4.082 -38.3,-8.684 -11.83,-4.617 -21.73,-11.398 -29.71,-20.3397 -7.98,-8.957 -11.97,-21.1992 -11.97,-36.7266 0,-10.5429 1.79,-19.6328 5.39,-27.2617 3.59,-7.6289 8.56,-13.9492 14.95,-18.9492 6.38,-5 13.83,-8.69142 22.33,-11.06252 8.52,-2.36719 17.69,-3.54687 27.53,-3.54687 14.37,0 26.59,2.23047 36.7,6.70703 10.11,4.47266 19.28,12.63286 27.53,24.48046 0.25,-4.7383 0.72,-9.3476 1.39,-13.8203 0.67,-4.4688 1.79,-8.94922 3.38,-13.42969 z M 3532.4,97.9492 c 0,-7.6484 -0.55,-15.1484 -1.6,-22.5078 -1.07,-7.3828 -3.2,-14.0312 -6.39,-19.9531 -3.18,-5.918 -7.71,-10.7383 -13.55,-14.418 -5.85,-3.6914 -13.43,-5.5312 -22.75,-5.5312 -8.77,0 -16.41,2.6328 -22.94,7.9023 -6.5,5.2695 -9.76,12.5 -9.76,21.7188 0,7.8984 2.06,14.2187 6.18,18.9687 4.12,4.7305 9.24,8.4219 15.36,11.0508 6.11,2.6406 12.82,4.4101 20.15,5.3323 7.3,0.918 14.02,1.379 20.13,1.379 2.92,0 5.45,-0.071 7.58,-0.192 2.12,-0.129 4.66,-0.199 7.59,-0.199 z m 296.77,56.8598 v 50.16 c -1.87,0.269 -3.53,0.402 -4.98,0.402 h -4.59 c -14.63,0 -27,-3.031 -37.1,-9.082 -10.11,-6.059 -18.49,-15.68 -25.13,-28.84 l -1.59,36.742 h -56.25 c 0,-8.441 0.25,-16.652 0.8,-24.691 0.53,-8.031 0.8,-16 0.8,-23.898 V 5.12891 h 58.23 V 99.1406 c 0,17.8984 4,31.8394 11.96,41.8474 7.98,10 21.41,15.012 40.3,15.012 5.31,0 11.17,-0.398 17.55,-1.191 m 148.38,135.871 h -58.24 V 5.12891 h 58.24 z M 4258.2,89.4492 c -3.58,6.4492 -8.29,11.8518 -14.12,16.1918 -5.83,4.359 -12.53,7.828 -20.09,10.468 -7.56,2.641 -15.18,4.871 -22.85,6.719 l -22.68,5.141 c -12.18,2.89 -21.67,6.179 -28.41,9.871 -6.77,3.68 -10.14,9.332 -10.14,16.969 0,3.961 0.92,7.32 2.78,10.07 1.87,2.769 4.26,5.07 7.19,6.922 2.92,1.84 6.17,3.16 9.76,3.949 3.6,0.789 7.11,1.18 10.57,1.18 9.84,0 17.3,-2.95 22.34,-8.891 5.05,-5.91 7.85,-13.617 8.38,-23.09 h 57.04 c -0.8,12.11 -3.66,22.301 -8.58,30.602 -4.91,8.289 -11.37,14.937 -19.34,19.937 -7.97,5 -17.03,8.563 -27.12,10.672 -10.11,2.102 -20.75,3.16 -31.92,3.16 -9.57,0 -19.47,-0.929 -29.71,-2.769 -10.25,-1.84 -19.55,-5.063 -27.92,-9.66 -8.38,-4.621 -15.24,-10.801 -20.54,-18.582 -5.33,-7.77 -7.99,-17.559 -7.99,-29.418 0,-9.219 1.74,-16.981 5.19,-23.301 3.45,-6.32 8.03,-11.649 13.76,-15.988 5.72,-4.352 12.16,-7.782 19.34,-10.2817 7.19,-2.5 14.49,-4.6719 21.94,-6.5 l 21.95,-5.1484 c 11.96,-2.9024 21.34,-6.3711 28.11,-10.461 6.78,-4.0898 10.18,-9.9414 10.18,-17.5703 0,-4.4922 -1,-8.3593 -3,-11.6601 -1.98,-3.2891 -4.51,-5.9805 -7.58,-8.0821 -3.05,-2.1289 -6.58,-3.7695 -10.56,-4.9375 -4,-1.1914 -7.97,-1.789 -11.97,-1.789 -11.97,0 -20.54,3.0273 -25.73,9.0781 -5.18,6.0703 -8.05,14.8906 -8.57,26.4805 h -58.65 c 0,-13.6992 2.46,-24.9492 7.38,-33.7696 4.91,-8.8398 11.53,-15.8007 19.9,-20.9414 8.35,-5.14059 17.91,-8.75778 28.64,-10.85934 10.75,-2.10938 22.1,-3.1484412 34.04,-3.1484412 10.61,0 21.56,0.9687502 32.85,2.9570312 11.27,1.97266 21.41,5.45313 30.44,10.45315 9.03,5 16.45,11.7187 22.29,20.1484 5.83,8.4297 8.75,19.0781 8.75,31.9883 0,9.4922 -1.79,17.4414 -5.35,23.8906 m 235.52,65.3598 v 50.16 c -1.88,0.269 -3.54,0.402 -4.99,0.402 h -4.58 c -14.63,0 -27.01,-3.031 -37.1,-9.082 -10.12,-6.059 -18.5,-15.68 -25.14,-28.84 l -1.59,36.742 h -56.24 c 0,-8.441 0.25,-16.652 0.8,-24.691 0.53,-8.031 0.78,-16 0.78,-23.898 V 5.12891 h 58.24 V 99.1406 c 0,17.8984 4,31.8394 11.98,41.8474 7.97,10 21.39,15.012 40.29,15.012 5.3,0 11.16,-0.398 17.55,-1.191 M 4780.91,5.12891 c -0.53,12.64059 -0.86,24.94139 -0.99,36.94139 -0.15,11.9688 -0.21,24.1485 -0.21,36.5195 V 204.191 h -58.24 V 101.102 c 0,-7.1137 -0.53,-14.2817 -1.58,-21.5122 -1.08,-7.2617 -3.19,-13.7617 -6.39,-19.5507 -3.19,-5.8086 -7.58,-10.5391 -13.16,-14.2188 -5.59,-3.6914 -12.9,-5.539 -21.95,-5.539 -9.04,0 -16.09,1.7187 -21.14,5.1406 -5.05,3.4062 -8.77,7.8984 -11.17,13.4179 -2.38,5.5313 -3.86,11.7813 -4.38,18.7618 -0.53,6.9882 -0.8,13.8867 -0.8,20.75 V 204.191 h -58.24 V 75.4414 c 0,-23.9726 5.99,-42.2031 17.95,-54.7031 11.97,-12.50783 30.45,-18.75783 55.44,-18.75783 14.89,0 27.34,2.69141 37.31,8.08983 9.97,5.3985 19.48,13.8789 28.51,25.4688 l 0.8,-30.41019 z m 310.35,0 V 133.879 c 0,23.973 -6.15,42.262 -18.39,54.91 -12.27,12.633 -30.78,18.961 -55.57,18.961 -13.86,0 -25.98,-2.648 -36.37,-7.91 -10.4,-5.27 -19.85,-13.43 -28.38,-24.488 l -0.11,115.328 H 4894.2 V 5.12891 h 58.24 V 108.211 c 0,5 0.53,11 1.6,17.98 1.05,6.957 3.05,13.618 5.98,19.938 2.92,6.32 7.17,11.652 12.75,16 5.6,4.332 12.9,6.512 21.94,6.512 9.05,0 16.17,-1.711 21.34,-5.141 5.2,-3.422 9.04,-7.828 11.57,-13.23 2.53,-5.399 4.06,-11.508 4.59,-18.36 0.53,-6.851 0.8,-13.699 0.8,-20.539 V 5.12891 Z m 301.16,88.47269 c 0,11.8594 -0.4,22.8984 -1.2,33.1684 -0.8,10.281 -3.33,20.281 -7.58,30.019 -4,9.211 -8.98,17.191 -14.96,23.891 -5.99,6.718 -12.83,12.261 -20.55,16.59 -7.71,4.339 -16.08,7.5 -25.13,9.48 -9.04,1.969 -18.48,2.961 -28.32,2.961 -34.57,0 -60.56,-9.742 -77.98,-29.223 -17.43,-19.488 -26.13,-45.816 -26.13,-78.988 0,-32.3789 8.83,-57.2695 26.53,-74.6484 17.68,-17.37113 42.88,-26.050819 75.58,-26.050819 11.7,0 23.08,1.179689 34.11,3.539059 11.04,2.37891 20.94,6.24996 29.72,11.64846 8.78,5.3906 16.15,12.5 22.15,21.332 5.98,8.8281 9.89,19.6914 11.76,32.5899 h -56.64 c -3.2,-23.1797 -16.63,-34.7618 -40.3,-34.7618 -8.5,0 -15.68,1.6407 -21.54,4.9297 -5.85,3.3008 -10.64,7.6407 -14.36,13.043 -3.73,5.3906 -6.37,11.5781 -7.97,18.5703 -1.6,6.9688 -2.4,14.2695 -2.4,21.9102 z M 5248.41,126.77 c 0,14.109 4.06,25.73 12.16,34.878 8.12,9.133 19.36,13.704 33.71,13.704 14.1,0 24.59,-4.372 31.52,-13.122 6.9,-8.761 10.37,-20.558 10.37,-35.46 h -87.76"
         style="fill:#0e090e;fill-opacity:1;fill-rule:nonzero;stroke:none"
         id="path38"
         inkscape:connector-curvature="0" /><path
         d="m 185.484,335.129 v 38.312 H 78.9844 L 181.496,493.5 v 40.691 H 16.3555 V 495.078 H 117.676 L 12.3633,374.23 v -39.101 z m 280.02,88.473 c 0,11.859 -0.399,22.91 -1.195,33.168 -0.801,10.269 -3.332,20.269 -7.582,30.019 -3.993,9.211 -8.973,17.191 -14.961,23.891 -5.981,6.718 -12.828,12.261 -20.539,16.59 -7.711,4.339 -16.09,7.5 -25.133,9.48 -9.035,1.969 -18.489,2.961 -28.321,2.961 -34.57,0 -60.566,-9.742 -77.976,-29.223 -17.422,-19.488 -26.129,-45.816 -26.129,-78.976 0,-32.403 8.84,-57.282 26.527,-74.66 17.684,-17.383 42.883,-26.063 75.59,-26.063 11.692,0 23.059,1.18 34.098,3.551 11.031,2.379 20.941,6.25 29.722,11.648 8.77,5.391 16.153,12.5 22.137,21.34 5.985,8.813 9.906,19.672 11.766,32.57 h -56.641 c -3.187,-23.168 -16.621,-34.75 -40.293,-34.75 -8.508,0 -15.687,1.641 -21.539,4.93 -5.847,3.301 -10.64,7.652 -14.359,13.051 -3.723,5.383 -6.379,11.57 -7.981,18.562 -1.59,6.957 -2.39,14.27 -2.39,21.911 z m -144,33.168 c 0,14.109 4.055,25.73 12.164,34.871 8.105,9.14 19.348,13.711 33.707,13.711 14.09,0 24.598,-4.372 31.512,-13.122 6.922,-8.761 10.367,-20.558 10.367,-35.46 z M 763.078,335.129 v 128.75 c 0,23.961 -6.051,42.199 -18.148,54.711 -12.117,12.5 -30.524,18.762 -55.254,18.762 -14.891,0 -27.391,-2.711 -37.492,-8.114 -10.11,-5.386 -19.688,-13.886 -28.715,-25.457 l -0.801,30.41 h -57.844 c 0.535,-6.851 0.934,-13.5 1.192,-19.953 0.269,-6.457 0.402,-12.84 0.402,-19.16 V 335.129 h 58.238 v 100.332 c 0,5.519 0.457,11.961 1.399,19.348 0.929,7.363 2.922,14.269 5.98,20.722 3.059,6.449 7.313,11.91 12.77,16.399 5.441,4.468 12.824,6.711 22.129,6.711 9.043,0 16.089,-1.711 21.152,-5.141 5.039,-3.422 8.828,-7.898 11.359,-13.43 2.528,-5.519 4.063,-11.781 4.59,-18.761 0.531,-6.969 0.801,-13.887 0.801,-20.731 V 335.129 Z m 231.746,161.543 v 37.918 h -47.469 v 56.082 l -56.64,-22.91 V 534.59 h -38.688 v -37.918 h 38.688 V 385.68 c 0,-10.801 1.332,-19.68 3.992,-26.66 2.648,-6.981 6.637,-12.442 11.961,-16.391 5.316,-3.949 11.828,-6.649 19.551,-8.09 7.707,-1.449 16.621,-2.168 26.726,-2.168 6.91,0 13.821,0.258 20.743,0.801 6.91,0.519 13.82,1.308 20.738,2.348 v 37.519 c -3.457,-0.258 -6.653,-0.59 -9.571,-0.98 -2.929,-0.387 -5.992,-0.59 -9.179,-0.59 -6.91,0 -12.231,0.722 -15.949,2.172 -3.731,1.437 -6.524,3.55 -8.383,6.32 -1.86,2.769 -2.989,6.328 -3.391,10.668 -0.398,4.332 -0.598,9.41 -0.598,15.211 v 90.832 z M 1216.61,484.82 v 50.149 c -1.87,0.269 -3.54,0.402 -4.98,0.402 h -4.59 c -14.63,0 -26.99,-3.019 -37.1,-9.082 -10.11,-6.059 -18.49,-15.68 -25.14,-28.84 l -1.58,36.742 h -56.25 c 0,-8.441 0.25,-16.652 0.8,-24.691 0.53,-8.031 0.8,-16 0.8,-23.898 V 335.129 h 58.23 v 94 c 0,17.902 4,31.851 11.97,41.859 7.97,10 21.4,15.012 40.29,15.012 5.31,0 11.17,-0.398 17.55,-1.18 m 287.2,-149.691 c -0.53,12.641 -0.86,24.941 -0.99,36.93 -0.15,11.98 -0.21,24.152 -0.21,36.543 v 125.589 h -58.24 V 431.102 c 0,-7.102 -0.54,-14.282 -1.59,-21.512 -1.06,-7.25 -3.19,-13.77 -6.39,-19.551 -3.18,-5.809 -7.58,-10.551 -13.15,-14.23 -5.6,-3.68 -12.91,-5.528 -21.94,-5.528 -9.06,0 -16.11,1.707 -21.15,5.141 -5.06,3.406 -8.78,7.887 -11.16,13.418 -2.4,5.539 -3.87,11.789 -4.39,18.762 -0.54,6.988 -0.8,13.898 -0.8,20.75 v 105.839 h -58.25 v -128.75 c 0,-23.961 6,-42.211 17.95,-54.711 11.98,-12.511 30.45,-18.761 55.45,-18.761 14.89,0 27.33,2.703 37.31,8.101 9.97,5.399 19.47,13.891 28.51,25.469 l 0.79,-30.41 z m 445.17,0 v 123.633 c 0,11.84 -1.35,22.558 -3.99,32.179 -2.66,9.598 -6.93,17.84 -12.78,24.688 -5.85,6.832 -13.36,12.16 -22.53,15.98 -9.18,3.832 -20.14,5.743 -32.91,5.743 -15.15,0 -28.98,-3.043 -41.48,-9.09 -12.5,-6.063 -22.61,-15.801 -30.31,-29.231 -5.6,13.949 -13.9,23.828 -24.94,29.617 -11.03,5.793 -23.87,8.704 -38.49,8.704 -14.37,0 -27.27,-2.641 -38.69,-7.911 -11.45,-5.261 -21.02,-14.089 -28.72,-26.461 l -1.6,31.211 h -57.05 c 0.53,-11.332 0.93,-22.461 1.21,-33.382 0.26,-10.93 0.4,-21.918 0.4,-32.981 V 335.129 h 58.24 V 445.32 c 0,6.84 0.65,13.489 1.99,19.942 1.33,6.457 3.58,12.109 6.78,16.988 3.18,4.879 7.44,8.828 12.76,11.84 5.31,3.039 11.96,4.551 19.94,4.551 7.98,0 14.43,-1.512 19.36,-4.551 4.91,-3.012 8.7,-7.039 11.37,-12.039 2.64,-5.012 4.38,-10.66 5.17,-16.981 0.8,-6.308 1.2,-12.769 1.2,-19.359 V 335.129 h 58.24 v 109 c 0,7.121 0.53,13.891 1.6,20.34 1.06,6.453 3.05,12.25 5.97,17.383 2.93,5.136 7.05,9.226 12.38,12.238 5.32,3.039 12.22,4.551 20.74,4.551 8.5,0 15.28,-1.45 20.35,-4.352 5.05,-2.898 8.83,-6.769 11.37,-11.648 2.52,-4.871 4.18,-10.461 4.98,-16.77 0.8,-6.332 1.2,-12.91 1.2,-19.762 v -110.98 z m 360.19,247.23 v 37.922 c -6.38,0.52 -12.84,1 -19.34,1.391 -6.52,0.387 -12.84,0.578 -18.95,0.578 -24.73,0 -42.43,-6.18 -53.05,-18.559 -10.65,-12.382 -15.97,-29.882 -15.97,-52.531 v -16.57 h -39.08 v -37.918 h 39.08 V 335.129 h 58.24 v 161.543 h 46.27 v 37.918 h -46.27 v 16.18 c 0,5 0.27,9.492 0.8,13.441 0.53,3.949 1.79,7.301 3.79,10.059 2,2.761 4.98,4.949 8.98,6.519 3.98,1.57 9.43,2.371 16.36,2.371 2.92,0 5.97,-0.07 9.17,-0.191 3.19,-0.149 6.51,-0.348 9.97,-0.61 m 286.39,-247.23 c -0.52,12.641 -0.86,24.941 -0.98,36.93 -0.14,11.98 -0.21,24.152 -0.21,36.543 v 125.589 h -58.23 V 431.102 c 0,-7.102 -0.55,-14.282 -1.6,-21.512 -1.07,-7.25 -3.2,-13.77 -6.38,-19.551 -3.19,-5.809 -7.59,-10.551 -13.16,-14.23 -5.59,-3.68 -12.9,-5.528 -21.95,-5.528 -9.03,0 -16.08,1.707 -21.13,5.141 -5.07,3.406 -8.79,7.887 -11.17,13.418 -2.39,5.539 -3.87,11.789 -4.4,18.762 -0.52,6.988 -0.8,13.898 -0.8,20.75 v 105.839 h -58.23 v -128.75 c 0,-23.961 5.99,-42.211 17.96,-54.711 11.95,-12.511 30.44,-18.761 55.44,-18.761 14.88,0 27.32,2.703 37.29,8.101 9.97,5.399 19.49,13.891 28.53,25.469 l 0.8,-30.41 z m -25.12,286.73 h -53.05 V 575.66 h 53.05 z m -94.54,0 h -52.64 V 575.66 h 52.64 z M 2836.89,484.82 v 50.149 c -1.85,0.269 -3.51,0.402 -4.97,0.402 h -4.59 c -14.64,0 -26.99,-3.019 -37.11,-9.082 -10.11,-6.059 -18.48,-15.68 -25.13,-28.84 l -1.59,36.742 h -56.25 c 0,-8.441 0.27,-16.652 0.8,-24.691 0.54,-8.031 0.8,-16 0.8,-23.898 V 335.129 h 58.25 v 94 c 0,17.902 3.99,31.851 11.96,41.859 7.98,10 21.41,15.012 40.28,15.012 5.32,0 11.17,-0.398 17.55,-1.18 m 488.24,-149.691 -90.93,114.531 82.16,84.93 h -70.2 l -77.78,-87.68 82.56,-111.781 z M 3168.38,620.68 h -58.25 V 335.129 h 58.25 z m 443.97,-285.551 c -0.55,12.641 -0.88,24.941 -1.01,36.93 -0.13,11.98 -0.19,24.152 -0.19,36.543 v 125.589 h -58.24 V 431.102 c 0,-7.102 -0.54,-14.282 -1.6,-21.512 -1.06,-7.25 -3.2,-13.77 -6.38,-19.551 -3.2,-5.809 -7.58,-10.551 -13.17,-14.23 -5.58,-3.68 -12.9,-5.528 -21.93,-5.528 -9.04,0 -16.09,1.707 -21.14,5.141 -5.06,3.406 -8.78,7.887 -11.17,13.418 -2.4,5.539 -3.86,11.789 -4.4,18.762 -0.53,6.988 -0.79,13.898 -0.79,20.75 v 105.839 h -58.23 v -128.75 c 0,-23.961 5.97,-42.211 17.95,-54.711 11.96,-12.511 30.44,-18.761 55.44,-18.761 14.89,0 27.33,2.703 37.29,8.101 9.97,5.399 19.48,13.891 28.53,25.469 l 0.8,-30.41 z m 309.92,0 v 128.75 c 0,23.961 -6.04,42.199 -18.14,54.711 -12.1,12.5 -30.51,18.762 -55.25,18.762 -14.89,0 -27.38,-2.711 -37.5,-8.114 -10.1,-5.386 -19.67,-13.886 -28.72,-25.457 l -0.8,30.41 h -57.83 c 0.53,-6.851 0.93,-13.5 1.19,-19.953 0.26,-6.457 0.4,-12.84 0.4,-19.16 V 335.129 h 58.24 v 100.332 c 0,5.519 0.46,11.961 1.4,19.348 0.93,7.363 2.93,14.269 5.99,20.722 3.04,6.449 7.3,11.91 12.76,16.399 5.45,4.468 12.82,6.711 22.14,6.711 9.03,0 16.08,-1.711 21.13,-5.141 5.06,-3.422 8.85,-7.898 11.38,-13.43 2.53,-5.519 4.04,-11.781 4.59,-18.761 0.53,-6.969 0.8,-13.887 0.8,-20.731 V 335.129 Z m 279.45,84.32 c -3.58,6.449 -8.29,11.86 -14.12,16.199 -5.84,4.352 -12.53,7.821 -20.08,10.461 -7.55,2.641 -15.17,4.871 -22.87,6.711 l -22.65,5.149 c -12.2,2.89 -21.67,6.172 -28.43,9.859 -6.77,3.692 -10.15,9.344 -10.15,16.992 0,3.95 0.93,7.309 2.81,10.059 1.84,2.769 4.24,5.07 7.17,6.922 2.92,1.84 6.19,3.16 9.78,3.949 3.58,0.789 7.11,1.18 10.57,1.18 9.83,0 17.27,-2.95 22.34,-8.891 5.05,-5.91 7.83,-13.609 8.37,-23.098 h 57.05 c -0.8,12.11 -3.66,22.309 -8.58,30.61 -4.93,8.289 -11.37,14.937 -19.35,19.937 -7.98,5 -17.02,8.563 -27.13,10.672 -10.11,2.102 -20.73,3.16 -31.9,3.16 -9.58,0 -19.5,-0.929 -29.72,-2.769 -10.24,-1.84 -19.55,-5.063 -27.92,-9.66 -8.39,-4.621 -15.23,-10.801 -20.56,-18.582 -5.32,-7.77 -7.96,-17.571 -7.96,-29.418 0,-9.219 1.71,-16.969 5.18,-23.301 3.45,-6.32 8.04,-11.649 13.76,-15.988 5.71,-4.34 12.17,-7.782 19.35,-10.282 7.17,-2.5 14.49,-4.672 21.94,-6.511 l 21.93,-5.137 c 11.97,-2.902 21.34,-6.371 28.13,-10.461 6.78,-4.082 10.16,-9.941 10.16,-17.57 0,-4.493 -0.99,-8.36 -2.98,-11.661 -2,-3.289 -4.53,-5.992 -7.58,-8.089 -3.07,-2.121 -6.58,-3.762 -10.58,-4.942 -3.98,-1.179 -7.98,-1.769 -11.96,-1.769 -11.96,0 -20.55,3.011 -25.73,9.07 -5.18,6.059 -8.04,14.891 -8.58,26.469 h -58.63 c 0,-13.688 2.45,-24.938 7.35,-33.77 4.91,-8.828 11.56,-15.801 19.9,-20.929 8.36,-5.141 17.92,-8.758 28.67,-10.848 10.75,-2.113 22.1,-3.16 34.04,-3.16 10.61,0 21.54,0.968 32.82,2.957 11.28,1.961 21.43,5.453 30.45,10.453 9.02,5 16.46,11.719 22.3,20.156 5.84,8.41 8.76,19.07 8.76,31.981 0,9.492 -1.79,17.441 -5.37,23.89 m 225.94,77.223 v 37.918 h -47.47 v 56.082 l -56.64,-22.91 V 534.59 h -38.68 v -37.918 h 38.68 V 385.68 c 0,-10.801 1.34,-19.68 4,-26.66 2.64,-6.981 6.64,-12.442 11.97,-16.391 5.31,-3.949 11.82,-6.649 19.54,-8.09 7.7,-1.449 16.62,-2.168 26.73,-2.168 6.9,0 13.82,0.258 20.74,0.801 6.9,0.519 13.82,1.308 20.73,2.348 v 37.519 c -3.46,-0.258 -6.65,-0.59 -9.57,-0.98 -2.93,-0.387 -5.97,-0.59 -9.18,-0.59 -6.9,0 -12.22,0.722 -15.95,2.172 -3.73,1.437 -6.52,3.55 -8.37,6.32 -1.86,2.769 -2.99,6.328 -3.39,10.668 -0.4,4.332 -0.61,9.41 -0.61,15.211 v 90.832 h 47.47"
         style="fill:#0e090e;fill-opacity:1;fill-rule:nonzero;stroke:none"
         id="path40"
         inkscape:connector-curvature="0" /></g></g></svg>
